<svg width="131" height="248" viewBox="0 0 131 248" fill="none" xmlns="http://www.w3.org/2000/svg">
<g clip-path="url(#clip0_2_4173)">
<mask id="mask0_2_4173" style="mask-type:alpha" maskUnits="userSpaceOnUse" x="-73" y="0" width="204" height="250">
<rect x="-73" y="-3.05176e-05" width="204" height="250" fill="#C4C4C4"/>
</mask>
<g mask="url(#mask0_2_4173)">
<path fill-rule="evenodd" clip-rule="evenodd" d="M171.556 319.097C132.53 321.509 90.8124 323.063 58.6052 298.881C26.3285 274.647 4.54307 233.409 0.968081 191.017C-2.28723 152.416 34.6751 124.441 40.6745 86.2613C48.1814 38.4883 8.08487 -21.5484 39.7276 -55.6448C70.0405 -88.3083 121.91 -47.9257 164.673 -47.3529C205.518 -46.8057 251.265 -78.8575 284.11 -52.3711C317.044 -25.8129 308.638 29.6005 314.689 73.6201C319.519 108.765 321.886 142.706 315.715 177.565C308.842 216.384 304.174 258.886 277.201 285.368C249.308 312.753 209.146 316.773 171.556 319.097Z" fill="#EFF6FB"/>
</g>
<g clip-path="url(#clip1_2_4173)">
<path d="M131 69.1748V67.7044H127.802V58H125.155V67.7044H118.455V58H115.807V67.7044H108.519V58H105.871V67.7044H99.1713V58H96.5057V67.7044H93V69.1748H96.5057V73.9012H93V75.3717H96.5057V80.0963H93V81.5667H96.5057V86.2913H93V87.7618H96.5057V92.4864H93V93.9568H96.5057V98.6814H93V100.152H96.5057V103.978H93V105.449H96.5057V110.173H93V111.644H96.5057V116.368H93V117.839H96.5057V122.563H93V124.034H96.5057V128.758H93V130.229H96.5057V134.953H93V136.424H96.5057V140.934H93V142.404H96.5057V147.129H93V148.599H96.5057V153.324H93V154.794H96.5057V159.519H93V160.989H96.5057V165.714H93V167.184H96.5057V171.909H93V173.379H96.5057V177.206H93V178.676H96.5057V183.401H93V184.871H96.5057V189.596H93V191.066H96.5057V195.791H93V197.261H96.5057V201.986H93V203.456H96.5057V208.181H93V209.651H96.5057V213.866H93V215.336H96.5057V220.061H93V221.531H96.5057V226.256H93V227.726H96.5057V232.451H93V233.921H96.5057V238.646H93V240.116H96.5057V244.843H93V246.313H96.5057V250.139H93V251.61H96.5057V256.335H93V257.805H96.5057V262.53H93V264H130.993V262.53H127.795V257.805H130.993V256.335H127.795V251.61H130.993V250.139H127.795V246.313H130.993V244.843H127.795V240.116H130.993V238.646H127.795V233.921H130.993V232.451H127.795V227.726H130.993V226.256H127.795V221.531H130.993V220.061H127.795V215.336H130.993V213.866H127.795V209.651H130.993V208.181H127.795V203.456H130.993V201.986H127.795V197.261H130.993V195.791H127.795V191.066H130.993V189.596H127.795V184.871H130.993V183.401H127.795V178.676H130.993V177.206H127.795V173.379H130.993V171.909H127.795V167.184H130.993V165.714H127.795V160.989H130.993V159.519H127.795V154.794H130.993V153.324H127.795V148.599H130.993V147.129H127.795V142.404H130.993V140.934H127.795V136.424H130.993V134.953H127.795V130.229H130.993V128.758H127.795V124.034H130.993V122.563H127.795V117.835H130.993V116.365H127.795V111.64H130.993V110.17H127.795V105.445H130.993V103.975H127.795V100.148H130.993V98.6778H127.795V93.9568H130.993V92.4864H127.795V87.7618H130.993V86.2913H127.795V81.5667H130.993V80.0963H127.795V75.3717H130.993V73.9012H127.795V69.1748H131ZM115.802 69.1748V73.9012H108.513V69.1748H115.802ZM108.513 256.325V251.601H115.802V256.325H108.513ZM115.802 257.796V262.52H108.513V257.796H115.802ZM108.513 250.13V246.304H115.802V250.13H108.513ZM108.513 244.846V240.12H115.802V244.846H108.513ZM108.513 238.651V233.927H115.802V238.651H108.513ZM108.513 232.456V227.732H115.802V232.456H108.513ZM108.513 226.261V221.537H115.802V226.261H108.513ZM108.513 220.066V215.342H115.802V220.066H108.513ZM108.513 213.871V209.657H115.802V213.871H108.513ZM108.513 208.186V203.462H115.802V208.186H108.513ZM108.513 201.991V197.267H115.802V201.991H108.513ZM108.513 195.796V191.072H115.802V195.796H108.513ZM108.513 189.601V184.876H115.802V189.601H108.513ZM108.513 183.406V178.681H115.802V183.406H108.513ZM108.513 177.211V173.385H115.802V177.211H108.513ZM108.513 171.916V167.191H115.802V171.916H108.513ZM108.513 165.721V160.996H115.802V165.721H108.513ZM108.513 159.526V154.801H115.802V159.526H108.513ZM108.513 153.331V148.606H115.802V153.331H108.513ZM108.513 147.136V142.411H115.802V147.136H108.513ZM108.513 140.941V136.431H115.802V140.941H108.513ZM108.513 134.961V130.236H115.802V134.961H108.513ZM108.513 128.766V124.041H115.802V128.766H108.513ZM108.513 122.571V117.835H115.802V122.56L108.513 122.571ZM108.513 116.376V111.64H115.802V116.365L108.513 116.376ZM108.513 110.181V105.445H115.802V110.17L108.513 110.181ZM108.513 103.985V100.159H115.802V103.985H108.513ZM108.513 98.6924V93.9568H115.802V98.6814L108.513 98.6924ZM108.513 92.4973V87.7618H115.802V92.4864L108.513 92.4973ZM108.513 86.3023V81.5667H115.802V86.2913L108.513 86.3023ZM108.513 80.1072V75.3717H115.802V80.0963L108.513 80.1072ZM99.1604 69.1857H105.86V73.9122H99.1604V69.1857ZM99.1604 75.3808H105.86V80.1054H99.1604V75.3808ZM99.1604 81.5758H105.86V86.3005H99.1604V81.5758ZM99.1604 87.7709H105.86V92.4955H99.1604V87.7709ZM99.1604 93.9659H105.86V98.6906H99.1604V93.9659ZM99.1604 100.161H105.86V103.987H99.1604V100.161ZM99.1604 105.445H105.86V110.17H99.1604V105.445ZM99.1604 111.64H105.86V116.365H99.1604V111.64ZM99.1604 117.835H105.86V122.56H99.1604V117.835ZM99.1604 124.03H105.86V128.755H99.1604V124.03ZM99.1604 130.225H105.86V134.95H99.1604V130.225ZM99.1604 136.42H105.86V140.93H99.1604V136.42ZM99.1604 142.4H105.86V147.125H99.1604V142.4ZM99.1604 148.595H105.86V153.32H99.1604V148.595ZM99.1604 154.79H105.86V159.515H99.1604V154.79ZM99.1604 160.985H105.86V165.71H99.1604V160.985ZM99.1604 167.18H105.86V171.905H99.1604V167.18ZM99.1604 173.376H105.86V177.202H99.1604V173.376ZM99.1604 178.67H105.86V183.395H99.1604V178.67ZM99.1604 184.866H105.86V189.59H99.1604V184.866ZM99.1604 191.061H105.86V195.785H99.1604V191.061ZM99.1604 197.256H105.86V201.98H99.1604V197.256ZM99.1604 203.451H105.86V208.175H99.1604V203.451ZM99.1604 209.646H105.86V213.86H99.1604V209.646ZM99.1604 215.331H105.86V220.055H99.1604V215.331ZM99.1604 221.526H105.86V226.25H99.1604V221.526ZM99.1604 227.721H105.86V232.445H99.1604V227.721ZM99.1604 233.916H105.86V238.64H99.1604V233.916ZM99.1604 240.111H105.86V244.837H99.1604V240.111ZM99.1604 246.306H105.86V250.132H99.1604V246.306ZM99.1604 251.59H105.86V256.315H99.1604V251.59ZM99.1604 257.785H105.86V262.51H99.1604V257.785ZM125.155 262.51H118.455V257.785H125.155V262.51ZM125.155 256.315H118.455V251.59H125.155V256.315ZM125.155 250.119H118.455V246.293H125.155V250.119ZM125.155 244.835H118.455V240.109H125.155V244.835ZM125.155 238.64H118.455V233.916H125.155V238.64ZM125.155 232.445H118.455V227.721H125.155V232.445ZM125.155 226.25H118.455V221.526H125.155V226.25ZM125.155 220.055H118.455V215.331H125.155V220.055ZM125.155 213.86H118.455V209.646H125.155V213.86ZM125.155 208.175H118.455V203.451H125.155V208.175ZM125.155 201.98H118.455V197.256H125.155V201.98ZM125.155 195.785H118.455V191.061H125.155V195.785ZM125.155 189.59H118.455V184.866H125.155V189.59ZM125.155 183.395H118.455V178.67H125.155V183.395ZM125.155 177.2H118.455V173.374H125.155V177.2ZM125.155 171.905H118.455V167.18H125.155V171.905ZM125.155 165.71H118.455V160.985H125.155V165.71ZM125.155 159.515H118.455V154.79H125.155V159.515ZM125.155 153.32H118.455V148.595H125.155V153.32ZM125.155 147.125H118.455V142.4H125.155V147.125ZM125.155 140.93H118.455V136.42H125.155V140.93ZM125.155 134.95H118.455V130.225H125.155V134.95ZM125.155 128.755H118.455V124.03H125.155V128.755ZM125.155 122.56H118.455V117.835H125.155V122.56ZM125.155 116.365H118.455V111.64H125.155V116.365ZM125.155 110.17H118.455V105.445H125.155V110.17ZM125.155 103.975H118.455V100.148H125.155V103.975ZM125.155 98.6814H118.455V93.9568H125.155V98.6814ZM125.155 92.4864H118.455V87.7618H125.155V92.4864ZM125.155 86.2913H118.455V81.5667H125.155V86.2913ZM125.155 80.0963H118.455V75.3717H125.155V80.0963ZM125.155 73.9012H118.455V69.1748H125.155V73.9012Z" fill="#D4E5F5"/>
<path d="M40.2256 199.553C42.461 200.073 52.5993 200.198 59.7139 198.592C61.0696 198.305 62.3951 197.89 63.6725 197.351C65.0116 196.76 66.0216 196.041 66.5378 195.178C67.3506 193.834 68.8138 189.231 70.5431 183.194C75.3064 166.564 82.0105 139.083 82.0105 139.083C82.0105 139.083 68.5496 141.842 65.7005 144.196C62.8515 146.551 60.5531 184.204 57.8727 185.206C57.1529 185.434 56.4478 185.706 55.7613 186.022L55.7187 186.042C55.1984 186.299 54.9546 186.471 54.3206 186.799C48.7627 189.655 39.0795 194.783 38.1325 195.929C36.8746 197.451 36.958 198.8 40.2256 199.553Z" fill="#73BEF0"/>
<path d="M66.0562 160.349C66.0577 159.708 66.1169 159.069 66.233 158.439C67.9664 148.876 81.7382 139.083 82.0105 139.083V139.287C82.0105 140.748 84.3068 143.445 87.8407 143.678C92.033 143.953 97.2089 141.552 97.2089 139.126C97.2332 139.126 99.5641 139.442 100.355 139.534C103.716 139.918 110.422 141.74 113.295 143.921C116.028 145.992 112.167 159.057 109.776 168.31C108.76 172.225 108.016 175.451 108.14 176.879C108.201 177.577 108.827 187.081 109.383 195.666C109.847 202.754 110.263 209.222 110.275 209.63C110.306 210.434 106.319 213.253 99.6251 215.383C97.8804 215.937 96.108 216.399 94.3151 216.767C90.5143 217.547 86.6437 217.932 82.7644 217.917C81.3825 217.917 80.0718 217.842 78.8363 217.713C69.2751 216.779 66.0074 205.837 66.0562 160.349Z" fill="#73BEF0"/>
<path d="M97.2067 139.02C97.288 135.307 97.227 130.871 96.7271 127.125L81.9616 129.547C81.9616 129.547 81.9453 134.072 82.0103 139.093C82.0103 139.093 81.6039 143.749 87.3223 144.431C93.0408 145.112 97.3611 142.605 97.2067 139.02Z" fill="#F5B89B"/>
<path d="M98.3814 189.121C98.3814 203.34 105.244 199.508 109.385 195.668C108.829 187.076 108.436 156.648 108.436 156.648C108.436 156.648 98.3814 168.761 98.3814 189.121Z" fill="#5BA8DB"/>
<path d="M53.8856 186.928C54.1599 188.923 55.7145 194.989 58.1653 199.026C59.6487 198.694 62.5506 197.849 63.6723 197.351C65.0115 196.76 66.0215 196.041 66.5377 195.178C67.3505 193.834 68.8136 189.231 70.543 183.194C69.2627 175.763 68.0455 168.426 68.0455 168.426L67.6696 163.503C67.6696 163.881 61.9308 185.503 59.3378 186.007C57.7731 186.313 56.8992 186.06 55.9584 185.924L55.8303 185.987C55.302 186.246 54.5196 186.601 53.8856 186.928Z" fill="#5BA8DB"/>
<path d="M98.6132 122.838C98.6132 122.838 108.471 107.234 89.5438 106.202C89.5438 106.202 82.4435 107.041 80.8361 105.427C80.8361 105.427 75.331 113.831 80.4723 122.838C85.6136 131.846 98.6132 122.838 98.6132 122.838Z" fill="#233862"/>
<path d="M82.3987 130.981C83.8355 132.116 88.042 133.24 89.2572 133.372C89.2572 133.372 95.4959 131.975 96.6298 131.289C98.3856 130.22 98.2738 128.055 98.3632 125.048C98.4709 121.488 98.8286 118.693 98.4323 116.64C97.9629 114.192 96.4124 112.788 92.0697 112.409C84.1017 111.715 80.7832 113.718 80.643 116.399C80.6084 117.12 80.5739 117.807 80.5515 118.458C80.2325 126.823 80.8909 129.79 82.3987 130.981Z" fill="#F5B89B"/>
<path d="M80.4786 121.2C80.5558 126.046 81.8584 128.914 82.8013 129.276C83.9987 129.725 85.2366 130.057 86.4978 130.267C86.9469 130.32 87.3757 130.306 87.3716 130.051C87.3553 129.286 86.3393 128.343 87.0952 127.666C87.8878 126.958 92.1431 126.717 92.4865 128.268C92.6531 129.023 91.2814 130.355 92.2223 130.385C92.5068 130.336 92.7872 130.281 93.0555 130.212C94.2122 129.889 95.3163 129.4 96.3333 128.759C98.0891 127.69 97.9732 126.052 98.3655 123.069C98.6174 121.139 98.6174 122.186 98.3655 125.048C98.1013 128.045 98.6174 129.969 96.632 131.289C95.5265 132.022 89.168 134.892 89.168 134.892C89.2594 133.372 83.8357 132.116 82.401 130.981C81.0679 129.93 80.3993 127.498 80.4786 121.2Z" fill="#233862"/>
<path d="M110.278 209.63C110.308 210.446 106.321 213.255 99.6272 215.385C99.0866 215.559 98.5278 215.724 97.9547 215.883C97.9511 215.884 97.9478 215.886 97.9453 215.889C97.9428 215.892 97.9411 215.896 97.9405 215.899C97.3167 223.257 95.6259 233.65 94.1018 243.678C93.6954 246.277 93.3235 248.852 92.9719 251.343C92.0412 257.935 91.3462 263.942 91.271 268.265V268.312C91.2385 270.295 92.8967 275.249 93.0309 276.388C93.1081 277.087 93.1711 277.816 93.2158 278.601C93.3967 281.698 93.3235 285.359 93.0756 289.264C91.9823 306.316 87.4953 328.133 85.894 329.061C82.7117 330.898 76.918 329.061 73.9755 328.627C72.7562 328.445 71.7808 327.403 71.8438 326.178C73.2805 297.882 69.1512 258.47 66.0644 234.244C65.9831 233.612 65.9032 232.994 65.8246 232.387C65.4568 229.531 65.215 226.862 65.0585 224.456C64.9183 222.347 64.8553 220.431 64.8207 218.77C64.8126 218.252 64.8072 217.759 64.8045 217.291C64.8045 215.775 65.9994 205.845 66.0542 160.367C66.0564 159.861 66.2578 159.376 66.6144 159.019C66.9711 158.661 67.4542 158.459 67.9584 158.458H95.6645C96.3012 158.458 96.9315 158.586 97.5187 158.833C98.1059 159.08 98.6383 159.442 99.0849 159.898C99.5316 160.353 99.8835 160.893 100.12 161.487C100.357 162.08 100.474 162.715 100.464 163.354C100.42 166.823 100.546 171.67 101.296 176.294C102.312 182.619 104.508 188.509 109.018 189.931C109.038 189.976 109.162 190.253 109.361 190.712C109.404 191.855 109.451 193.016 109.503 194.201C109.503 194.44 109.524 194.679 109.536 194.919C109.536 195.06 109.548 195.199 109.556 195.34C109.556 195.58 109.579 195.821 109.591 196.064C109.609 196.472 109.629 196.864 109.652 197.27C109.67 197.588 109.686 197.906 109.705 198.227C109.737 198.839 109.776 199.467 109.814 200.096C109.814 200.3 109.839 200.504 109.853 200.708C109.906 201.524 109.961 202.34 110.024 203.174C110.042 203.429 110.062 203.684 110.083 203.941C110.083 204.066 110.099 204.19 110.109 204.313C110.133 204.639 110.16 204.964 110.186 205.292C110.213 205.621 110.245 205.986 110.276 206.337C110.408 207.596 110.245 208.734 110.278 209.63Z" fill="#1C4D8A"/>
<path d="M93.0756 289.266C91.9823 306.318 87.4953 328.135 85.894 329.063C82.7117 330.899 76.918 329.063 73.9755 328.629C72.7562 328.447 71.7808 327.404 71.8438 326.18C73.2805 297.884 69.1512 258.472 66.0644 234.246C65.9831 233.614 65.9032 232.996 65.8246 232.389C65.4568 229.532 65.2149 226.864 65.0585 224.458C66.5277 214.853 74.8127 214.339 82.3316 234.209C81.3969 240.791 93.3235 285.361 93.0756 289.266Z" fill="#163760"/>
<path d="M110.588 267.465C110.816 269.436 113.112 274.125 113.389 275.241C117.187 290.578 115.09 326.945 113.206 328.398C110.292 330.642 104.307 329.579 101.334 329.541C100.103 329.522 98.9992 328.616 98.8955 327.386C96.5606 298.414 86.8815 258.611 80.6571 235.198C77.5235 223.406 77.0785 214.734 77.0785 214.734C77.0785 214.734 106.169 196.841 109.314 206.616C112.102 215.267 108.833 252.331 110.588 267.465Z" fill="#1C4D8A"/>
<path d="M80.9599 101.838C81.1631 101.611 81.3663 101.393 81.598 101.179C82.6056 100.218 83.7808 99.4519 85.0648 98.9183C90.1452 96.7944 94.3415 98.7551 96.9711 100.755C97.2292 100.959 97.473 101.148 97.7006 101.344C98.5239 102.033 99.2731 102.806 99.936 103.652C99.936 103.652 102.399 107.026 102.316 114.139L76.9424 114.41C76.9424 114.41 76.5623 106.737 80.9599 101.838Z" fill="#ED9C57"/>
<path d="M95.189 114.22L93.7949 114.235C93.7644 113.827 93.8335 104.584 97.2678 100.995C97.4186 101.106 97.5631 101.225 97.7007 101.352C94.4391 104.513 95.1808 114.129 95.189 114.22Z" fill="#E1833F"/>
<path d="M84.1625 114.333C83.8719 108.673 81.724 102.723 81.1306 101.667C81.2773 101.493 81.4334 101.327 81.598 101.171C82.0044 101.871 85.3127 108.03 85.6623 114.316L102.308 114.139C102.308 114.139 93.8721 116.038 88.7836 116.101C83.6951 116.165 76.9342 114.41 76.9342 114.41L84.1625 114.333Z" fill="#E1833F"/>
<path d="M101.352 139.663C101.352 139.663 92.7787 149.69 92.2768 158.433L96.6439 158.666C96.6439 158.666 97.7433 148.921 104.195 140.256C104.195 140.256 103.179 140.009 102.852 139.944C102.401 139.86 101.352 139.663 101.352 139.663Z" fill="#1C4D8A"/>
<path d="M79.9785 139.526C73.8373 148.856 73.1789 158.629 73.1789 158.629L68.7692 158.553C69.1309 151.676 73.4431 144.11 75.8105 140.526C75.8105 140.526 78.8628 139.752 79.9785 139.526Z" fill="#1C4D8A"/>
<path d="M108.215 193.495C107.997 203.762 109.274 224.207 109.274 224.207H115.305C118.15 209.821 119.166 200.567 119.166 195.519C119.166 194.523 119.166 193.597 119.154 192.742C119.115 188.431 118.999 185.928 118.999 185.928C120.131 159.812 114.935 145.84 113.309 143.919C111.684 141.997 104.21 140.266 104.21 140.266C104.21 140.266 101.743 147.481 100.739 153.287C99.7348 159.094 108.646 183.483 108.28 191.818C108.245 192.334 108.227 192.895 108.215 193.495Z" fill="#73BEF0"/>
<path d="M18.5021 196.452C19.7904 198.288 20.6094 199.263 22.3631 199.742C24.9094 200.438 27.1773 199.173 28.866 198.202C30.1503 197.459 31.7536 197.398 32.4405 197.41C36.3849 198.378 40.4532 202.046 58.1755 199.026C60.3153 196.46 58.9498 191.424 54.3307 186.805C46.9195 188.772 33.8793 191.253 31.5464 192.773C31.5464 192.773 28.5652 191.912 26.7139 192.408C26.0129 192.595 25.2284 193.108 24.5253 193.669C23.4178 194.552 21.912 194.623 20.5992 193.828C19.3353 193.065 17.9818 192.885 17.5104 193.056C16.7686 193.324 17.6912 195.297 18.5021 196.452Z" fill="#F5B89B"/>
<path d="M98.7534 216.928L79.9521 215.404C79.7518 215.388 79.5514 215.434 79.3777 215.535C79.204 215.636 79.0653 215.789 78.98 215.971C78.8948 216.154 78.8671 216.359 78.9006 216.558C78.9341 216.756 79.0273 216.94 79.1677 217.085L92.3502 230.628C92.4614 230.743 92.5988 230.829 92.7504 230.879C92.902 230.928 93.0634 230.94 93.2207 230.914C93.378 230.887 93.5265 230.822 93.6534 230.725C93.7804 230.628 93.882 230.502 93.9495 230.357L96.5222 224.848L102.686 227.753L103.159 226.733L96.9956 223.828L99.5683 218.319C99.6329 218.175 99.662 218.017 99.6534 217.86C99.6448 217.702 99.5987 217.548 99.5189 217.412C99.4391 217.276 99.328 217.161 99.1948 217.076C99.0616 216.992 98.9103 216.941 98.7534 216.928Z" fill="#B4C0C9"/>
<path d="M14.0984 192.906L38.7361 201.126C38.935 201.192 39.145 201.218 39.354 201.203C39.563 201.187 39.767 201.131 39.9541 201.036C40.1413 200.941 40.3079 200.81 40.4444 200.651C40.581 200.491 40.6848 200.306 40.7499 200.106L42.8369 193.799C42.9027 193.599 42.9285 193.389 42.9131 193.179C42.8976 192.969 42.841 192.764 42.7466 192.577C42.6522 192.389 42.5219 192.222 42.363 192.084C42.2042 191.947 42.0199 191.843 41.8208 191.777L17.1812 183.557C16.9822 183.491 16.7723 183.465 16.5633 183.481C16.3544 183.496 16.1505 183.553 15.9635 183.648C15.7764 183.742 15.6098 183.873 15.4732 184.033C15.3366 184.192 15.2326 184.377 15.1673 184.577L13.0803 190.884C13.0146 191.084 12.9888 191.294 13.0044 191.504C13.0201 191.714 13.0768 191.919 13.1714 192.107C13.266 192.295 13.3965 192.462 13.5556 192.599C13.7147 192.736 13.8992 192.84 14.0984 192.906Z" fill="#E1833F"/>
<path d="M119.453 234.493C119.301 234.844 119.016 235.121 118.662 235.262C118.307 235.403 117.911 235.397 117.561 235.245L102.909 228.89C102.559 228.737 102.284 228.452 102.143 228.096C102.002 227.74 102.008 227.342 102.159 226.99C102.234 226.816 102.343 226.659 102.478 226.526C102.614 226.394 102.774 226.29 102.95 226.22C103.126 226.151 103.313 226.116 103.502 226.119C103.691 226.122 103.878 226.162 104.051 226.238L118.703 232.593C118.876 232.668 119.033 232.777 119.165 232.913C119.297 233.05 119.4 233.21 119.47 233.387C119.539 233.563 119.574 233.752 119.571 233.941C119.568 234.131 119.528 234.318 119.453 234.493Z" fill="#ED9C57"/>
<path d="M109.274 224.203C109.274 224.203 107.997 203.758 108.215 193.491C113.039 191.928 116.931 192.267 119.148 192.738C119.148 193.593 119.16 194.519 119.16 195.515C119.16 200.563 118.154 209.817 115.299 224.203C116.557 229.508 116.473 235.221 114.295 236.241C112.117 237.261 104.909 233.464 104.994 231.781C105.079 230.098 109.274 224.203 109.274 224.203Z" fill="#F5B89B"/>
</g>
</g>
<defs>
<clipPath id="clip0_2_4173">
<rect width="131" height="248" fill="white"/>
</clipPath>
<clipPath id="clip1_2_4173">
<rect width="118" height="192" fill="white" transform="translate(13 58)"/>
</clipPath>
</defs>
</svg>
