<svg width="157" height="248" viewBox="0 0 157 248" fill="none" xmlns="http://www.w3.org/2000/svg">
<g clip-path="url(#clip0_2_4252)">
<mask id="mask0_2_4252" style="mask-type:alpha" maskUnits="userSpaceOnUse" x="-28" y="-2" width="185" height="252">
<rect x="-28" y="-2" width="185" height="252" fill="#C4C4C4"/>
</mask>
<g mask="url(#mask0_2_4252)">
<path fill-rule="evenodd" clip-rule="evenodd" d="M325.998 353.557C350.462 320.362 334.721 273.378 351.014 235.498C373.82 182.475 450.744 147.682 438.84 91.2033C427.576 37.7622 354.237 25.7515 302.885 7.15613C259.813 -8.44099 215.06 -11.0964 169.5 -6.32847C124.239 -1.59194 68.8433 -2.85852 42.6919 34.3851C16.3355 71.9207 54.7897 123.406 46.7033 168.552C39.1705 210.607 -15.3463 243.149 -1.96927 283.725C11.1845 323.624 69.7043 321.603 104.783 344.721C142.848 369.808 166.141 422.719 211.694 424.539C257.633 426.374 298.722 390.567 325.998 353.557Z" fill="#EFF6FB"/>
</g>
<g clip-path="url(#clip1_2_4252)">
<path d="M86.7211 113.6H87.3069V112.657C87.3251 112.181 87.5274 111.731 87.8713 111.401C88.2153 111.071 88.6741 110.887 89.1515 110.887C89.6289 110.887 90.0877 111.071 90.4316 111.401C90.7756 111.731 90.9779 112.181 90.9961 112.657V113.6H91.5791V112.657C91.5791 112.015 91.3232 111.399 90.8677 110.945C90.4122 110.491 89.7943 110.236 89.1501 110.236C88.5059 110.236 87.8881 110.491 87.4326 110.945C86.977 111.399 86.7211 112.015 86.7211 112.657V113.6Z" fill="#D4E5F5"/>
<path d="M87.2933 106.92V92.8599C87.2836 92.5969 87.3271 92.3346 87.4213 92.0887C87.5156 91.8429 87.6586 91.6185 87.8418 91.429C88.025 91.2395 88.2447 91.0887 88.4877 90.9858C88.7308 90.8828 88.9921 90.8297 89.2561 90.8297C89.5202 90.8297 89.7816 90.8828 90.0246 90.9858C90.2676 91.0887 90.4872 91.2395 90.6705 91.429C90.8537 91.6185 90.9967 91.8429 91.0909 92.0887C91.1852 92.3346 91.2287 92.5969 91.219 92.8599V106.92C91.2287 107.183 91.1852 107.445 91.0909 107.691C90.9967 107.937 90.8537 108.162 90.6705 108.351C90.4872 108.541 90.2676 108.691 90.0246 108.794C89.7816 108.897 89.5202 108.95 89.2561 108.95C88.9921 108.95 88.7308 108.897 88.4877 108.794C88.2447 108.691 88.025 108.541 87.8418 108.351C87.6586 108.162 87.5156 107.937 87.4213 107.691C87.3271 107.445 87.2836 107.183 87.2933 106.92ZM87.8549 92.8599V106.92C87.8466 107.109 87.8767 107.297 87.9434 107.474C88.0101 107.65 88.112 107.812 88.2429 107.948C88.3738 108.084 88.5311 108.193 88.7052 108.267C88.8794 108.341 89.0668 108.379 89.2561 108.379C89.4455 108.379 89.6329 108.341 89.807 108.267C89.9812 108.193 90.1384 108.084 90.2694 107.948C90.4003 107.812 90.5022 107.65 90.5689 107.474C90.6356 107.297 90.6657 107.109 90.6574 106.92V92.8599C90.6657 92.6713 90.6356 92.483 90.5689 92.3064C90.5022 92.1297 90.4003 91.9684 90.2694 91.832C90.1384 91.6957 89.9812 91.5872 89.807 91.513C89.6329 91.4389 89.4455 91.4007 89.2561 91.4007C89.0668 91.4007 88.8794 91.4389 88.7052 91.513C88.5311 91.5872 88.3738 91.6957 88.2429 91.832C88.112 91.9684 88.0101 92.1297 87.9434 92.3064C87.8767 92.483 87.8466 92.6713 87.8549 92.8599Z" fill="#D4E5F5"/>
<path d="M87.3929 107.252V102.287C87.3936 101.953 87.5269 101.634 87.7635 101.398C88.0002 101.162 88.321 101.029 88.6558 101.028H89.8434C90.0092 101.028 90.1735 101.061 90.3267 101.124C90.4799 101.187 90.6191 101.28 90.7364 101.397C90.8537 101.514 90.9467 101.653 91.0102 101.805C91.0736 101.958 91.1063 102.122 91.1063 102.287V107.252C91.1063 107.418 91.0736 107.581 91.0102 107.734C90.9467 107.887 90.8537 108.026 90.7364 108.142C90.6191 108.259 90.4799 108.352 90.3267 108.415C90.1735 108.478 90.0092 108.511 89.8434 108.511H88.645C88.3121 108.508 87.9941 108.373 87.7597 108.138C87.5254 107.902 87.3936 107.584 87.3929 107.252Z" fill="#D4E5F5"/>
<path d="M88.5563 111.441H89.7816V106.377H88.5563V111.441Z" fill="#D4E5F5"/>
<path d="M88.6208 94.7132H92.369C93.0888 94.7132 93.6722 94.1316 93.6722 93.4143V79.761C93.6722 79.0437 93.0888 78.4621 92.369 78.4621H88.6208C87.901 78.4621 87.3176 79.0437 87.3176 79.761V93.4143C87.3176 94.1316 87.901 94.7132 88.6208 94.7132Z" fill="#D4E5F5"/>
<path d="M119.459 113.6H120.042V112.657C120.06 112.181 120.263 111.731 120.606 111.401C120.95 111.071 121.409 110.887 121.887 110.887C122.364 110.887 122.823 111.071 123.167 111.401C123.511 111.731 123.713 112.181 123.731 112.657V113.6H124.317V112.657C124.317 112.015 124.061 111.399 123.606 110.945C123.15 110.491 122.532 110.236 121.888 110.236C121.244 110.236 120.626 110.491 120.17 110.945C119.715 111.399 119.459 112.015 119.459 112.657V113.6Z" fill="#D4E5F5"/>
<path d="M120.031 106.92V92.8599C120.031 92.3414 120.238 91.8441 120.606 91.4775C120.974 91.1109 121.472 90.9049 121.993 90.9049C122.513 90.9049 123.012 91.1109 123.38 91.4775C123.748 91.8441 123.954 92.3414 123.954 92.8599V106.92C123.954 107.439 123.748 107.936 123.38 108.303C123.012 108.669 122.513 108.875 121.993 108.875C121.472 108.875 120.974 108.669 120.606 108.303C120.238 107.936 120.031 107.439 120.031 106.92ZM120.59 92.8599V106.92C120.59 107.291 120.738 107.647 121.001 107.909C121.264 108.171 121.621 108.318 121.993 108.318C122.365 108.318 122.721 108.171 122.984 107.909C123.248 107.647 123.395 107.291 123.395 106.92V92.8599C123.395 92.4892 123.248 92.1336 122.984 91.8714C122.721 91.6092 122.365 91.4619 121.993 91.4619C121.621 91.4619 121.264 91.6092 121.001 91.8714C120.738 92.1336 120.59 92.4892 120.59 92.8599Z" fill="#D4E5F5"/>
<path d="M120.13 107.252V102.287C120.131 101.953 120.264 101.634 120.501 101.398C120.738 101.162 121.059 101.029 121.393 101.028H122.592C122.926 101.029 123.247 101.162 123.484 101.398C123.721 101.634 123.854 101.953 123.855 102.287V107.252C123.854 107.586 123.721 107.906 123.484 108.142C123.247 108.378 122.926 108.51 122.592 108.511H121.393C121.059 108.51 120.738 108.378 120.501 108.142C120.264 107.906 120.131 107.586 120.13 107.252Z" fill="#D4E5F5"/>
<path d="M121.294 111.441H122.519V106.377H121.294V111.441Z" fill="#D4E5F5"/>
<path d="M121.359 94.7132H125.107C125.827 94.7132 126.41 94.1316 126.41 93.4143V79.761C126.41 79.0437 125.827 78.4621 125.107 78.4621H121.359C120.639 78.4621 120.055 79.0437 120.055 79.761V93.4143C120.055 94.1316 120.639 94.7132 121.359 94.7132Z" fill="#D4E5F5"/>
<path d="M139.087 70.1786V251.238H150.748V70.1786H139.087ZM140.844 249.682V71.7346H148.991V249.682H140.844Z" fill="#D4E5F5"/>
<path d="M144.437 88.2588L140.218 93.3473H139.92V94.3864H150.079V93.3473H149.679L145.541 88.2588L149.991 82.9025H150.222V81.8634H139.78V82.9025H140.07L144.437 88.2588ZM144.993 87.592L141.164 82.9052H148.884L144.993 87.592ZM144.993 88.931L148.588 93.3393H141.333L144.993 88.931Z" fill="#D4E5F5"/>
<path d="M144.437 99.6196L140.218 104.542H139.92V105.565H150.079V104.555H149.679L145.541 99.6383L149.991 94.4427H150.222V93.433H139.78V94.4427H140.07L144.437 99.6196ZM144.993 98.9714L141.167 94.4186H148.886L144.993 98.9714ZM144.993 100.27L148.588 104.555H141.333L144.993 100.27Z" fill="#D4E5F5"/>
<path d="M144.437 110.79L140.218 115.713H139.92V116.722H150.079V115.713H149.679L145.541 110.795L149.991 105.6H150.222V104.593H139.78V105.6H140.07L144.437 110.79ZM144.993 110.145L141.167 105.592H148.886L144.993 110.145ZM144.993 111.441L148.588 115.726H141.333L144.993 111.441Z" fill="#D4E5F5"/>
<path d="M144.437 121.963L140.218 126.886H139.92V127.893H150.079V126.886H149.679L145.541 121.966L149.991 116.773H150.222V115.764H139.78V116.773H140.07L144.437 121.963ZM144.993 121.315L141.167 116.762H148.886L144.993 121.315ZM144.993 122.614L148.588 126.886H141.333L144.993 122.614Z" fill="#D4E5F5"/>
<path d="M144.437 133.134L140.218 138.057H139.92V139.066H150.079V138.057H149.679L145.541 133.139L149.991 127.944H150.222V126.937H139.78V127.944H140.07L144.437 133.134ZM144.993 132.489L141.167 127.936H148.886L144.993 132.489ZM144.993 133.785L148.588 138.07H141.333L144.993 133.785Z" fill="#D4E5F5"/>
<path d="M144.437 144.305L140.218 149.227H139.92V150.237H150.079V149.219H149.679L145.541 144.302L149.991 139.109H150.222V138.099H139.78V139.109H140.07L144.437 144.305ZM144.993 143.659L141.167 139.106H148.886L144.993 143.659ZM144.993 144.955L148.588 149.24H141.333L144.993 144.955Z" fill="#D4E5F5"/>
<path d="M144.437 155.478L140.218 160.4H139.92V161.407H150.079V160.4H149.679L145.541 155.483L149.991 150.288H150.222V149.278H139.78V150.29H140.07L144.437 155.478ZM144.993 154.833L141.164 150.29H148.884L144.993 154.833ZM144.993 156.129L148.588 160.414H141.333L144.993 156.129Z" fill="#D4E5F5"/>
<path d="M144.437 166.649L140.218 171.571H139.92V172.581H150.079V171.571H149.679L145.541 166.654L149.991 161.458H150.222V160.451H139.78V161.458H140.07L144.437 166.649ZM144.993 166.003L141.167 161.45H148.886L144.993 166.003ZM144.993 167.299L148.588 171.584H141.333L144.993 167.299Z" fill="#D4E5F5"/>
<path d="M144.437 177.819L140.218 182.744H139.92V183.751H150.079V182.744H149.679L145.541 177.824L149.991 172.632H150.222V171.622H139.78V172.632H140.07L144.437 177.819ZM144.993 177.174L141.167 172.621H148.886L144.993 177.174ZM144.993 178.473L148.588 182.758H141.333L144.993 178.473Z" fill="#D4E5F5"/>
<path d="M144.437 188.992L140.218 193.915H139.92V194.925H150.079V193.915H149.679L145.541 188.998L149.991 183.802H150.222V182.795H139.78V183.374L139.737 183.408L139.78 183.459V183.802H140.07L144.437 188.992ZM144.993 188.347L141.167 183.794H148.886L144.993 188.347ZM144.993 189.643L148.588 193.928H141.333L144.993 189.643Z" fill="#D4E5F5"/>
<path d="M144.437 200.163L140.218 205.086H139.92V206.095H150.079V205.086H149.679L145.541 200.168L149.991 194.975H150.222V193.966H139.78V194.544L139.737 194.582L139.78 194.63V194.975H140.07L144.437 200.163ZM144.993 199.518L141.167 194.965H148.886L144.993 199.518ZM144.993 200.814L148.588 205.086H141.333L144.993 200.814Z" fill="#D4E5F5"/>
<path d="M144.437 211.336L140.218 216.259H139.92V217.266H150.079V216.259H149.679L145.541 211.342L149.991 206.146H150.222V205.136H139.78V205.728L139.737 205.763L139.78 205.811V206.157H140.07L144.437 211.336ZM144.993 210.688L141.167 206.135H148.886L144.993 210.688ZM144.993 211.987L148.588 216.272H141.333L144.993 211.987Z" fill="#D4E5F5"/>
<path d="M144.437 222.507L140.218 227.429H139.92V228.439H150.079V227.421H149.679L145.541 222.504L149.991 217.309H150.222V216.302H139.78V216.88L139.737 216.915L139.78 216.966V217.309H140.07L144.437 222.507ZM144.993 221.861L141.167 217.309H148.886L144.993 221.861ZM144.993 223.158L148.588 227.443H141.333L144.993 223.158Z" fill="#D4E5F5"/>
<path d="M144.437 233.68L140.218 238.603H139.92V239.61H150.079V238.603H149.679L145.541 233.683L149.991 228.49H150.222V227.48H139.78V228.061L139.737 228.096L139.78 228.144V228.492H140.07L144.437 233.68ZM144.993 233.032L141.164 228.492H148.884L144.993 233.032ZM144.993 234.331L148.588 238.616H141.333L144.993 234.331Z" fill="#D4E5F5"/>
<path d="M144.437 244.851L140.218 249.773H139.92V250.783H150.079V249.773H149.679L145.541 244.856L149.991 239.66H150.222V238.653H139.78V239.232L139.737 239.267L139.78 239.318V239.66H140.07L144.437 244.851ZM144.993 244.205L141.167 239.652H148.886L144.993 244.205ZM144.993 245.501L148.588 249.786H141.333L144.993 245.501Z" fill="#D4E5F5"/>
<path d="M148.889 44.4709H145.898C145.675 44.4709 145.461 44.5592 145.304 44.7164C145.146 44.8736 145.057 45.0868 145.057 45.3091V70.0419C145.057 70.2642 145.146 70.4775 145.304 70.6347C145.461 70.7919 145.675 70.8802 145.898 70.8802H148.889C148.999 70.8802 149.109 70.8585 149.211 70.8164C149.313 70.7743 149.406 70.7125 149.484 70.6347C149.562 70.5568 149.624 70.4644 149.666 70.3627C149.708 70.261 149.73 70.152 149.73 70.0419V45.3064C149.729 45.0846 149.64 44.8721 149.483 44.7154C149.325 44.5588 149.112 44.4709 148.889 44.4709ZM146.739 45.3091H148.048C148.271 45.3091 148.485 45.3974 148.643 45.5546C148.8 45.7118 148.889 45.9251 148.889 46.1474V52.9928C148.889 53.2151 148.8 53.4283 148.643 53.5855C148.485 53.7427 148.271 53.831 148.048 53.831H146.739C146.517 53.8303 146.303 53.7418 146.145 53.5847C145.988 53.4277 145.899 53.2149 145.898 52.9928V46.1474C145.898 46.0371 145.919 45.9278 145.962 45.8258C146.004 45.7238 146.066 45.631 146.144 45.5529C146.222 45.4748 146.315 45.4128 146.417 45.3705C146.519 45.3282 146.629 45.3064 146.739 45.3064V45.3091ZM146.739 54.8085H148.048C148.271 54.8085 148.485 54.8969 148.643 55.0541C148.8 55.2113 148.889 55.4245 148.889 55.6468V59.6962C148.889 59.9185 148.8 60.1317 148.643 60.2889C148.485 60.4461 148.271 60.5345 148.048 60.5345H146.739C146.629 60.5345 146.52 60.5128 146.418 60.4707C146.315 60.4285 146.223 60.3668 146.145 60.2889C146.067 60.2111 146.005 60.1187 145.962 60.017C145.92 59.9153 145.898 59.8063 145.898 59.6962V55.6468C145.898 55.5367 145.92 55.4277 145.962 55.326C146.005 55.2243 146.067 55.1319 146.145 55.0541C146.223 54.9762 146.315 54.9145 146.418 54.8724C146.52 54.8302 146.629 54.8085 146.739 54.8085ZM148.048 70.0419H146.739C146.629 70.0419 146.52 70.0203 146.418 69.9781C146.315 69.936 146.223 69.8742 146.145 69.7964C146.067 69.7186 146.005 69.6262 145.962 69.5245C145.92 69.4227 145.898 69.3137 145.898 69.2037V62.3503C145.898 62.2402 145.92 62.1312 145.962 62.0295C146.005 61.9278 146.067 61.8354 146.145 61.7575C146.223 61.6797 146.315 61.6179 146.418 61.5758C146.52 61.5337 146.629 61.512 146.739 61.512H148.048C148.271 61.512 148.485 61.6003 148.643 61.7575C148.8 61.9147 148.889 62.1279 148.889 62.3503V69.2037C148.889 69.426 148.8 69.6392 148.643 69.7964C148.485 69.9536 148.271 70.0419 148.048 70.0419Z" fill="#D4E5F5"/>
<path d="M80.0763 79.8815V72.1631C80.0763 71.57 80.3127 71.0012 80.7334 70.5818C81.1542 70.1624 81.7249 69.9268 82.3199 69.9268H153.067C153.228 69.9262 153.388 69.9433 153.545 69.9777L185.802 76.9623C186.302 77.0728 186.749 77.3493 187.07 77.7464C187.391 78.1435 187.568 78.6376 187.57 79.1477V79.8815C187.57 80.4741 187.333 81.0423 186.912 81.4611C186.492 81.8799 185.921 82.1151 185.327 82.1151H82.3199C81.7253 82.1151 81.1551 81.8799 80.7344 81.4611C80.3137 81.0423 80.077 80.4741 80.0763 79.8815ZM82.3199 71.3114C82.0968 71.3114 81.8829 71.3997 81.7252 71.5569C81.5675 71.7141 81.4789 71.9274 81.4789 72.1497V79.8815C81.4789 80.1038 81.5675 80.3171 81.7252 80.4743C81.8829 80.6315 82.0968 80.7198 82.3199 80.7198H185.327C185.55 80.7198 185.764 80.6315 185.921 80.4743C186.079 80.3171 186.168 80.1038 186.168 79.8815V79.1477C186.167 78.9566 186.102 78.7712 185.982 78.6223C185.861 78.4733 185.694 78.3696 185.507 78.3282L153.255 71.3435C153.196 71.3306 153.136 71.3243 153.075 71.3248L82.3199 71.3114Z" fill="#D4E5F5"/>
<path d="M80.0763 72.1604V79.8815C80.077 80.4742 80.3137 81.0423 80.7344 81.4611C81.1551 81.8799 81.7253 82.1151 82.3199 82.1151H185.327C185.921 82.1151 186.492 81.8799 186.912 81.4611C187.333 81.0423 187.57 80.4742 187.57 79.8815V79.1477C187.568 78.6379 187.393 78.1438 187.072 77.7466C186.751 77.3495 186.304 77.0729 185.805 76.9623L153.545 69.9777C153.07 69.8786 157.597 69.9456 82.3199 69.9268C81.7253 69.9268 81.1551 70.162 80.7344 70.5809C80.3137 70.9997 80.077 71.5678 80.0763 72.1604ZM81.4789 79.2468C81.4789 71.7747 81.4574 72.1497 81.5004 71.9702L83.6876 75.4331C84.1255 76.1241 83.306 76.4829 81.4789 79.2468ZM154.695 71.6864L157.065 75.4358C157.503 76.1375 156.732 76.3972 154.292 80.0315L151.923 76.2821C151.848 76.1646 151.811 76.0276 151.815 75.8887C151.819 75.7498 151.865 75.6154 151.947 75.5027L154.695 71.6864ZM153.083 80.7171H148.198L150.195 77.9506C150.262 77.8574 150.35 77.7821 150.453 77.7312C150.556 77.6804 150.67 77.6556 150.785 77.659C150.899 77.6624 151.011 77.694 151.111 77.7509C151.211 77.8079 151.295 77.8884 151.356 77.9854L153.083 80.7171ZM93.2638 76.2794C92.8232 75.5831 93.6024 75.3099 96.0368 71.6864L98.4066 75.4358C98.4807 75.5534 98.518 75.6903 98.5137 75.8291C98.5094 75.9679 98.4637 76.1023 98.3825 76.2151L95.631 80.0315L93.2638 76.2794ZM92.8124 73.7646C92.7454 73.8572 92.6565 73.932 92.5537 73.9825C92.451 74.0329 92.3373 74.0575 92.2228 74.0541C92.1082 74.0506 91.9963 74.0193 91.8967 73.9628C91.7972 73.9062 91.713 73.8262 91.6517 73.7298L90.1308 71.3195H94.5724L92.8124 73.7646ZM97.4635 71.3221H101.908L100.148 73.7646C100.08 73.8572 99.9913 73.932 99.8883 73.9824C99.7853 74.0328 99.6715 74.0574 99.5568 74.054C99.4421 74.0505 99.33 74.0192 99.2302 73.9627C99.1304 73.9062 99.046 73.8262 98.9843 73.7298L97.4635 71.3221ZM100.591 76.2794C100.517 76.1618 100.48 76.0249 100.484 75.8861C100.488 75.7473 100.534 75.6129 100.615 75.5001L103.364 71.6864L105.734 75.4358C105.808 75.5533 105.846 75.6903 105.842 75.8291C105.837 75.968 105.791 76.1025 105.71 76.2151L102.961 80.0315L100.591 76.2794ZM104.794 71.3221H109.235L107.475 73.7646C107.408 73.8572 107.319 73.932 107.216 73.9825C107.114 74.0329 107 74.0575 106.885 74.0541C106.771 74.0506 106.659 74.0193 106.559 73.9628C106.46 73.9062 106.376 73.8262 106.314 73.7298L104.794 71.3221ZM107.927 76.2794C107.486 75.5831 108.265 75.3099 110.699 71.6864L113.069 75.4358C113.51 76.1348 112.731 76.408 110.294 80.0315L107.927 76.2794ZM112.126 71.3221H116.57L114.81 73.7646C114.743 73.8572 114.654 73.932 114.551 73.9824C114.448 74.0328 114.334 74.0574 114.219 74.054C114.105 74.0505 113.993 74.0192 113.893 73.9627C113.793 73.9062 113.709 73.8262 113.647 73.7298L112.126 71.3221ZM115.259 76.2794C114.819 75.5831 115.598 75.3099 118.035 71.6864L120.402 75.4358C120.476 75.5533 120.514 75.6903 120.51 75.8291C120.505 75.968 120.459 76.1025 120.378 76.2151L117.629 80.0315L115.259 76.2794ZM119.462 71.3221H123.903L122.143 73.7646C122.076 73.8572 121.987 73.932 121.884 73.9825C121.782 74.0329 121.668 74.0575 121.553 74.0541C121.439 74.0506 121.327 74.0193 121.227 73.9628C121.128 73.9062 121.044 73.8262 120.982 73.7298L119.462 71.3221ZM122.595 76.2794C122.52 76.1619 122.483 76.0249 122.487 75.886C122.491 75.7472 122.537 75.6127 122.619 75.5001L125.367 71.6864L127.737 75.4358C127.811 75.5534 127.849 75.6903 127.844 75.8291C127.84 75.9679 127.794 76.1023 127.713 76.2151L124.962 80.0315L122.595 76.2794ZM126.794 71.3221H131.222L129.462 73.7646C129.395 73.8572 129.306 73.932 129.203 73.9824C129.1 74.0328 128.986 74.0574 128.871 74.054C128.757 74.0505 128.645 74.0192 128.545 73.9627C128.445 73.9062 128.361 73.8262 128.299 73.7298L126.794 71.3221ZM129.927 76.2794C129.853 76.1618 129.816 76.0249 129.82 75.8861C129.824 75.7473 129.87 75.6129 129.951 75.5001L132.703 71.6864L135.07 75.4358C135.144 75.5533 135.182 75.6903 135.178 75.8291C135.173 75.968 135.127 76.1025 135.046 76.2151L132.297 80.0288L129.927 76.2794ZM134.13 71.3221H138.571L136.811 73.7646C136.744 73.8572 136.655 73.932 136.552 73.9825C136.45 74.0329 136.336 74.0575 136.222 74.0541C136.107 74.0506 135.995 74.0193 135.895 73.9628C135.796 73.9062 135.712 73.8262 135.65 73.7298L134.13 71.3221ZM137.263 76.2794C137.188 76.1619 137.151 76.0249 137.155 75.886C137.159 75.7472 137.205 75.6127 137.287 75.5001L140.036 71.6864L142.405 75.4358C142.846 76.1348 142.067 76.408 139.632 80.0315L137.263 76.2794ZM141.462 71.3221H145.906L144.147 73.7646C144.079 73.8572 143.99 73.932 143.887 73.9824C143.784 74.0328 143.67 74.0574 143.556 74.054C143.441 74.0505 143.329 74.0192 143.229 73.9627C143.129 73.9062 143.045 73.8262 142.983 73.7298L141.462 71.3221ZM149.738 75.4331C149.813 75.5504 149.85 75.6872 149.846 75.8261C149.843 75.9649 149.797 76.0994 149.717 76.2125L146.965 80.0288L144.598 76.2794C144.523 76.1622 144.485 76.0253 144.489 75.8865C144.493 75.7476 144.538 75.613 144.619 75.5001L147.371 71.6864L149.738 75.4331ZM145.732 80.7171H140.847L142.843 77.9506C142.91 77.8574 142.999 77.7821 143.102 77.7312C143.204 77.6804 143.318 77.6556 143.433 77.659C143.548 77.6624 143.66 77.694 143.76 77.7509C143.859 77.8079 143.943 77.8884 144.004 77.9854L145.732 80.7171ZM138.396 80.7171H133.512L135.508 77.9506C135.575 77.8574 135.663 77.7821 135.766 77.7312C135.869 77.6804 135.983 77.6556 136.098 77.659C136.212 77.6624 136.325 77.694 136.424 77.7509C136.524 77.8079 136.608 77.8884 136.669 77.9854L138.396 80.7171ZM131.064 80.7171H126.179L128.173 77.9506C128.24 77.8574 128.329 77.7821 128.432 77.7313C128.535 77.6805 128.649 77.6557 128.764 77.6591C128.879 77.6626 128.991 77.6941 129.091 77.751C129.191 77.8079 129.275 77.8884 129.336 77.9854L131.064 80.7171ZM123.728 80.7171H118.862L120.859 77.9506C120.925 77.8574 121.014 77.7821 121.117 77.7312C121.22 77.6804 121.334 77.6556 121.448 77.659C121.563 77.6624 121.675 77.694 121.775 77.7509C121.875 77.8079 121.959 77.8884 122.02 77.9854L123.728 80.7171ZM116.396 80.7171H111.511L113.505 77.9506C113.572 77.8574 113.661 77.7821 113.764 77.7313C113.867 77.6805 113.981 77.6557 114.096 77.6591C114.211 77.6626 114.323 77.6941 114.423 77.751C114.523 77.8079 114.607 77.8884 114.668 77.9854L116.396 80.7171ZM109.06 80.7171H104.176L106.172 77.9506C106.239 77.8574 106.327 77.7821 106.43 77.7312C106.533 77.6804 106.647 77.6556 106.762 77.659C106.876 77.6624 106.989 77.694 107.088 77.7509C107.188 77.8079 107.272 77.8884 107.333 77.9854L109.06 80.7171ZM101.728 80.7171H96.8429L98.8365 77.9506C98.9035 77.8574 98.9925 77.7821 99.0956 77.7313C99.1986 77.6805 99.3127 77.6557 99.4276 77.6591C99.5425 77.6626 99.6549 77.6941 99.7547 77.751C99.8545 77.8079 99.9388 77.8884 100 77.9854L101.728 80.7171ZM94.3924 80.7171H89.5075L91.5039 77.9506C91.5706 77.8574 91.6593 77.7821 91.7621 77.7312C91.865 77.6804 91.9788 77.6556 92.0936 77.659C92.2084 77.6624 92.3205 77.694 92.4201 77.7509C92.5197 77.8079 92.6037 77.8884 92.6646 77.9854L94.3924 80.7171ZM85.8989 75.5001L88.6665 71.6596C90.7381 75.2001 91.5093 75.5456 91.0283 76.2125L88.2607 80.0556C86.1945 76.5151 85.4233 76.1696 85.9043 75.5001H85.8989ZM85.4233 73.7646C85.3562 73.8572 85.2674 73.932 85.1646 73.9825C85.0618 74.0329 84.9482 74.0575 84.8337 74.0541C84.7191 74.0506 84.6072 74.0193 84.5076 73.9628C84.4081 73.9062 84.3239 73.8262 84.2626 73.7298L82.7417 71.3195H87.1833L85.4233 73.7646ZM153.218 71.3382L151.466 73.7646C151.399 73.8572 151.31 73.932 151.207 73.9825C151.104 74.0329 150.991 74.0575 150.876 74.0541C150.762 74.0506 150.65 74.0193 150.55 73.9628C150.451 73.9062 150.366 73.8262 150.305 73.7298L148.784 71.3195C153.306 71.3302 153.056 71.3087 153.223 71.3382H153.218ZM159.562 72.7121L158.801 73.7646C158.734 73.8576 158.645 73.9328 158.542 73.9834C158.439 74.0341 158.325 74.0586 158.211 74.0549C158.096 74.0512 157.984 74.0193 157.884 73.9622C157.785 73.905 157.701 73.8243 157.64 73.7271L156.59 72.0667L159.562 72.7121ZM163.165 73.4914L164.393 75.4331C164.836 76.1321 164.046 76.4214 161.622 80.0288L159.253 76.2794C159.179 76.1618 159.141 76.0251 159.145 75.8865C159.149 75.7479 159.194 75.6134 159.274 75.5001L161.053 73.0308L163.165 73.4914ZM165.707 74.0271C165.614 74.0458 165.518 74.0448 165.425 74.024C165.332 74.0032 165.245 73.9632 165.169 73.9065L165.707 74.0271ZM171.664 75.3179C171.765 75.4412 171.824 75.5939 171.831 75.7532C171.838 75.9124 171.794 76.0698 171.704 76.2017L168.952 80.0154L166.585 76.266C166.511 76.1485 166.473 76.0115 166.478 75.8727C166.482 75.7338 166.528 75.5993 166.609 75.4867L167.397 74.3913L171.664 75.3179ZM178.593 76.8177L176.288 80.0154C173.923 76.1589 173.743 76.2446 173.821 75.7839L178.593 76.8177ZM185.311 80.7037H183.981C183.932 80.4359 183.94 80.5778 182.065 77.573L185.491 78.3121C186.399 78.513 186.106 79.6164 186.152 79.8681C186.154 80.0896 186.069 80.3031 185.915 80.4622C185.76 80.6212 185.549 80.7129 185.327 80.7171L185.311 80.7037ZM177.518 80.7037L179.512 77.9372C179.579 77.844 179.668 77.7687 179.771 77.7179C179.874 77.6671 179.988 77.6423 180.103 77.6457C180.218 77.6492 180.33 77.6807 180.43 77.7376C180.53 77.7945 180.614 77.875 180.676 77.972L182.403 80.7037H177.518ZM170.183 80.7037L172.179 77.9372C172.246 77.844 172.335 77.7687 172.438 77.7178C172.541 77.667 172.654 77.6422 172.769 77.6456C172.884 77.6491 172.996 77.6806 173.096 77.7376C173.195 77.7945 173.279 77.875 173.34 77.972L175.071 80.7037H170.183ZM162.85 80.7037L164.844 77.9372C164.911 77.844 165 77.7687 165.103 77.7179C165.206 77.6671 165.32 77.6423 165.435 77.6457C165.55 77.6492 165.662 77.6807 165.762 77.7376C165.862 77.7945 165.946 77.875 166.008 77.972L167.735 80.7037H162.85ZM155.515 80.7037L157.511 77.9372C157.578 77.844 157.667 77.7687 157.77 77.7178C157.873 77.667 157.986 77.6422 158.101 77.6456C158.216 77.6491 158.328 77.6806 158.428 77.7376C158.527 77.7945 158.611 77.875 158.672 77.972L160.403 80.7037H155.515ZM82.3145 80.7037C82.2595 80.704 82.2046 80.6986 82.1506 80.6877L84.1336 77.9372C84.2003 77.844 84.289 77.7687 84.3918 77.7178C84.4947 77.667 84.6085 77.6422 84.7233 77.6456C84.8381 77.6491 84.9502 77.6806 85.0498 77.7376C85.1494 77.7945 85.2334 77.875 85.2943 77.972L87.0221 80.7037H82.3145Z" fill="#D4E5F5"/>
<path d="M184.768 78.0898C184.91 78.089 185.048 78.0454 185.164 77.9646C185.281 77.8839 185.37 77.7698 185.42 77.6376C185.47 77.5053 185.479 77.361 185.445 77.2237C185.411 77.0864 185.336 76.9626 185.23 76.8686L147.519 43.6594L88.8653 69.8331C88.7772 69.8678 88.6971 69.9199 88.6298 69.9863C88.5624 70.0527 88.5093 70.132 88.4736 70.2194C88.4378 70.3069 88.4202 70.4006 88.4218 70.495C88.4234 70.5894 88.4442 70.6825 88.4829 70.7687C88.5216 70.8549 88.5774 70.9323 88.6469 70.9964C88.7165 71.0605 88.7983 71.1099 88.8876 71.1416C88.9768 71.1733 89.0715 71.1867 89.1661 71.1809C89.2606 71.1751 89.353 71.1502 89.4376 71.1079L147.269 45.3065L184.303 77.9265C184.433 78.0354 184.598 78.0935 184.768 78.0898Z" fill="#D4E5F5"/>
<path d="M147.175 45.3306H147.451C147.742 45.3306 147.978 45.0955 147.978 44.8056V41.5249C147.978 41.235 147.742 41 147.451 41H147.175C146.884 41 146.648 41.235 146.648 41.5249V44.8056C146.648 45.0955 146.884 45.3306 147.175 45.3306Z" fill="#D4E5F5"/>
<path d="M78.9986 121.318H130.322C131.978 121.318 133.321 119.98 133.321 118.329V116.596C133.321 114.946 131.978 113.608 130.322 113.608H78.9986C77.3425 113.608 76 114.946 76 116.596V118.329C76 119.98 77.3425 121.318 78.9986 121.318Z" fill="#D4E5F5"/>
</g>
<g clip-path="url(#clip2_2_4252)">
<path d="M224.538 156.879H58V269.805H224.538V156.879Z" fill="#D4E5F5"/>
<path d="M98.4938 167.087H71.688V208.367H98.4938V167.087Z" fill="#ACC8E3"/>
<path d="M141.269 167.087H114.463V208.367H141.269V167.087Z" fill="#ACC8E3"/>
<path d="M98.4939 223.669H71.6881V264.95H98.4939V223.669Z" fill="#ACC8E3"/>
<path d="M141.269 223.669H114.463V264.95H141.269V223.669Z" fill="#ACC8E3"/>
<path d="M98.4938 171.091V167.087H71.688V208.361H75.1101V171.091H98.4938Z" fill="#8DB4D8"/>
<path d="M141.269 171.091V167.087H114.463V208.361H117.885V171.091H141.269Z" fill="#8DB4D8"/>
<path d="M98.4939 227.68V223.676H71.6881V264.95H75.1101V227.68H98.4939Z" fill="#8DB4D8"/>
<path d="M141.269 227.68V223.676H114.463V264.95H117.885V227.68H141.269Z" fill="#8DB4D8"/>
<path d="M229.578 217H58.578V219H229.578V217Z" fill="#8AB2D7"/>
<path d="M229.578 156H58.578V158H229.578V156Z" fill="#8AB2D7"/>
<path d="M107 127H104V270H107V127Z" fill="#8AB2D7"/>
<path d="M152 127H150V270H152V127Z" fill="#8AB2D7"/>
<path d="M229.578 217H58.578V218H229.578V217Z" fill="#ACC8E3"/>
<path d="M229.578 156H58.578V157H229.578V156Z" fill="#ACC8E3"/>
<path d="M106 127H104V270H106V127Z" fill="#ACC8E3"/>
<path d="M151 127H149V270H151V127Z" fill="#ACC8E3"/>
</g>
</g>
<defs>
<clipPath id="clip0_2_4252">
<rect width="157" height="248" fill="white"/>
</clipPath>
<clipPath id="clip1_2_4252">
<rect width="81" height="209" fill="white" transform="translate(76 41)"/>
</clipPath>
<clipPath id="clip2_2_4252">
<rect width="99" height="167" fill="white" transform="translate(58 83)"/>
</clipPath>
</defs>
</svg>
