<svg width="269" height="248" viewBox="0 0 269 248" fill="none" xmlns="http://www.w3.org/2000/svg">
<mask id="mask0_2_4092" style="mask-type:alpha" maskUnits="userSpaceOnUse" x="0" y="0" width="269" height="248">
<rect width="269" height="248" fill="#C4C4C4"/>
</mask>
<g mask="url(#mask0_2_4092)">
<mask id="mask1_2_4092" style="mask-type:alpha" maskUnits="userSpaceOnUse" x="3" y="-111" width="441" height="470">
<path fill-rule="evenodd" clip-rule="evenodd" d="M134.801 -110.316C180.207 -108.156 208.678 -59.1974 247.322 -33.1524C274.477 -14.8501 301.391 -0.669789 327.357 19.4641C368.45 51.3279 444.24 66.0663 443.191 118.724C442.136 171.716 354.015 165.873 323.612 207.466C293.604 248.517 317.15 324.745 274.009 350.169C232.274 374.764 180.118 337.234 134.363 318.993C89.5908 301.142 31.9547 291.594 12.3824 245.863C-7.3112 199.848 43.2791 154.137 42.461 104.261C41.6077 52.2429 -12.5789 2.37916 7.61871 -44.5558C27.5046 -90.7662 85.7429 -112.65 134.801 -110.316Z" fill="#EFF6FB"/>
</mask>
<g mask="url(#mask1_2_4092)">
<path d="M25.1372 2.51289L19.044 10.8065C18.2867 10.5422 17.5256 10.2969 16.7419 10.067C15.9582 9.83705 15.1635 9.66419 14.3688 9.49133C13.5741 9.31846 12.7531 9.17997 11.9547 9.02612C11.1564 8.87227 10.298 8.8252 9.45864 8.7818L16.786 -1.10832L25.1372 2.51289Z" fill="#EFF6FB"/>
<path d="M76.0978 14.2859L70.6915 21.9821L28.5416 3.97763L29.5834 2.56099L26.1754 1.11526L25.1335 2.5319L16.7751 -1.05127L14.9321 -1.82062L20.4992 -9.32799L22.3231 -8.5623L76.0978 14.2859Z" fill="white"/>
<path d="M29.5835 2.56095L28.5416 3.97759L22.4638 12.2939L3.73004 37.8958L2.22943 39.9538L-1.22462 38.44L0.27599 36.382L19.0441 10.8064L25.1336 2.53186L26.1755 1.11522L29.5835 2.56095Z" fill="white"/>
<path d="M4.94093 57.5972C3.73518 59.2201 2.24482 60.6104 0.542454 61.7004C-1.19316 62.8193 -3.09753 63.6511 -5.09749 64.164C-7.11001 64.6853 -9.19137 64.8898 -11.2667 64.7701C-13.3214 64.6581 -15.3389 64.1757 -17.2221 63.3464C-18.9663 62.5841 -20.5303 61.4628 -21.8123 60.0554C-22.9464 58.7896 -23.7751 57.2803 -24.2348 55.6437C-24.6744 54.0122 -24.7227 52.2998 -24.3757 50.646C-23.9688 48.8354 -23.1836 47.1314 -22.0716 45.646C-20.8647 44.0446 -19.3719 42.6804 -17.6687 41.6225C-15.9462 40.5305 -14.0599 39.722 -12.0815 39.2277C-10.1132 38.7194 -8.0792 38.5127 -6.04904 38.6149C-4.02104 38.7254 -2.02892 39.1961 -0.165956 40.0051C1.56231 40.7456 3.11754 41.838 4.40085 43.2126C5.55922 44.4743 6.40812 45.9885 6.88034 47.6353C7.34217 49.2597 7.41773 50.9697 7.10098 52.6287C6.7395 54.4188 6.00334 56.112 4.94093 57.5972Z" fill="#A1B500"/>
<path d="M3.71097 37.8921C5.59445 38.9261 7.24843 40.3319 8.57274 42.0243C9.81011 43.5845 10.6816 45.4026 11.1228 47.3448C11.564 49.287 11.5638 51.3035 11.1221 53.2458C10.6345 55.3854 9.71572 57.403 8.42201 59.1754C7.01284 61.1052 5.27687 62.7734 3.29271 64.1043C1.29196 65.4638 -0.904081 66.5105 -3.21983 67.2084C-5.56982 67.9231 -8.01168 68.2899 -10.4677 68.297C-12.9239 68.2796 -15.3603 67.8568 -17.6787 67.0455L-16.6105 65.5945L-20.1142 64.0317L-21.1634 65.4863C-23.0598 64.4217 -24.7144 62.9744 -26.0222 61.2363C-27.2314 59.6404 -28.0683 57.794 -28.4715 55.8323C-28.8747 53.8706 -28.8339 51.8434 -28.3522 49.8994C-27.8184 47.7723 -26.8569 45.7764 -25.5263 44.0335C-24.1182 42.1432 -22.3833 40.5202 -20.4037 39.2413C-18.4042 37.9142 -16.2143 36.8995 -13.9094 36.2323C-11.5991 35.5437 -9.20086 35.1952 -6.79026 35.1978C-4.39842 35.1798 -2.01969 35.5516 0.252557 36.2986L-1.24805 38.3566L2.206 39.8704L3.71097 37.8921ZM-17.2594 63.4378C-15.3762 64.2671 -13.3587 64.7495 -11.304 64.8616C-9.22869 64.9812 -7.14736 64.7767 -5.13484 64.2554C-3.13488 63.7426 -1.23048 62.9107 0.505135 61.7919C2.2075 60.7018 3.69783 59.3115 4.90359 57.6886C5.99986 56.1903 6.76101 54.4736 7.13532 52.655C7.45207 50.996 7.37653 49.286 6.9147 47.6616C6.44248 46.0148 5.59358 44.5006 4.43521 43.2389C3.1519 41.8643 1.59665 40.772 -0.131621 40.0314C-1.99459 39.2224 -3.98668 38.7517 -6.01468 38.6413C-8.04484 38.5391 -10.0788 38.7457 -12.0471 39.254C-14.0255 39.7483 -15.9119 40.5568 -17.6344 41.6488C-19.3376 42.7067 -20.8303 44.0709 -22.0372 45.6723C-23.1492 47.1577 -23.9345 48.8617 -24.3413 50.6723C-24.6884 52.3262 -24.6401 54.0385 -24.2004 55.67C-23.7407 57.3066 -22.912 58.8159 -21.7779 60.0817C-20.4959 61.4891 -18.9319 62.6104 -17.1878 63.3727L-17.2594 63.4378Z" fill="white"/>
<path d="M198.887 -32.6066L217.025 -25.344L149.878 80.5369L130.937 72.3304L185.973 -12.6488L188.978 -17.2967L198.887 -32.6066Z" fill="white"/>
<path d="M85.3928 18.2271L67.071 44.6579L61.5263 52.6627L38.5094 85.8616L28.9843 81.5802L52.1086 48.5401L57.6839 40.5807L70.6915 21.9821L76.0978 14.2859L85.3928 18.2271Z" fill="white"/>
<path d="M298.847 113.859L289.122 131.789L267.478 122.47L277.366 104.71L298.847 113.859Z" fill="#D4E5F5"/>
<path d="M345.218 165.203L340.615 174.356L331.853 170.517L320.23 165.457L299.152 156.267L233.206 127.523L233.982 126.153L229.984 124.397L229.188 125.762L144.586 88.8666L125.599 80.5921L61.5263 52.6627L67.0709 44.6579L130.936 72.3305L149.878 80.5369L301.897 146.421L322.876 155.513L336.486 161.41L345.218 165.203Z" fill="white"/>
<path d="M136.176 163.304L127.462 177.522L125.653 180.468L121.634 178.608L123.44 175.682L132.188 161.49L136.176 163.304Z" fill="white"/>
<path d="M52.7682 193.051L125.599 80.592L144.586 88.8666L68.4596 208.915C67.1792 207.682 65.8797 206.445 64.5759 205.129L60.6916 201.244L56.7569 197.212L52.7682 193.051Z" fill="white"/>
<path d="M186.35 204.63L184.235 208.345L182.151 207.391L134.701 185.486L135.418 184.322L131.377 182.478L130.663 183.623L121.229 179.28L123.44 175.682L121.634 178.608L125.653 180.468L127.462 177.522L184.286 203.68L186.35 204.63Z" fill="white"/>
<path d="M135.418 184.322L134.701 185.486L117.058 214.532L112.971 212.621L130.663 183.623L131.377 182.478L135.418 184.322Z" fill="white"/>
<path d="M175.351 -6.43111L162.36 13.512L147.613 7.37623L160.711 -12.4081L175.351 -6.43111Z" fill="#ACC8E3"/>
<path d="M-21.14 65.5698L-39.4231 90.4696C-39.5775 90.6568 -39.7165 90.8667 -39.8518 91.0576L-40.2616 91.6492L-40.6333 92.2483C-40.6736 92.4575 -40.885 92.6337 -41.0014 92.8283C-41.7331 92.4308 -42.4231 92.0217 -43.1058 91.5745C-43.7885 91.1274 -44.4295 90.6686 -45.0479 90.1944C-45.6662 89.7202 -46.2545 89.1926 -46.7288 88.687C-47.2031 88.1813 -47.8222 87.6084 -48.3805 87.0274C-51.0343 84.0007 -52.9777 80.4182 -54.0684 76.5425C-55.2103 72.4157 -55.5711 68.1116 -55.1321 63.8519C-54.6575 59.0956 -53.4741 54.437 -51.621 50.031C-49.5219 45.0647 -46.7985 40.3863 -43.5167 36.109C-36.8379 27.3881 -28.2927 20.2732 -18.508 15.2864C-14.0167 13.0047 -9.26776 11.2709 -4.36329 10.1223C0.172245 9.02091 4.84482 8.59217 9.50469 8.84986C10.3479 8.90716 11.18 8.98861 12.0008 9.09419C12.7991 9.24803 13.6165 9.40555 14.4149 9.55939C15.2133 9.71324 16.0116 9.86708 16.788 10.135C17.5644 10.403 18.3327 10.6102 19.0901 10.8745L0.359973 36.4574C-1.91227 35.7104 -4.29104 35.3386 -6.68288 35.3567C-9.09348 35.354 -11.4917 35.7025 -13.802 36.3912C-16.1069 37.0583 -18.2968 38.073 -20.2963 39.4002C-22.2759 40.679 -24.0108 42.302 -25.4189 44.1923C-26.7495 45.9352 -27.7111 47.9312 -28.2448 50.0582C-28.7265 52.0022 -28.7672 54.0294 -28.3641 55.9911C-27.9609 57.9528 -27.124 59.7993 -25.9148 61.3951C-24.6237 63.0972 -22.9989 64.5177 -21.14 65.5698Z" fill="#ACC8E3"/>
<path d="M196.681 39.1007C200.077 40.4863 203.181 42.5032 205.826 45.0447C208.221 47.3275 210.107 50.0905 211.361 53.1529C212.564 56.0971 213.071 59.2797 212.842 62.4523C212.579 65.7946 211.524 69.0262 209.763 71.8792L200.211 87.7905C199.772 88.4953 199.192 89.102 198.507 89.5727C197.815 90.0641 197.037 90.4225 196.214 90.6298C194.479 91.103 192.634 90.9769 190.98 90.272L170.066 81.2515C169.278 80.9189 168.561 80.4394 167.953 79.8384C167.414 79.2884 166.99 78.6368 166.706 77.9215C166.435 77.2145 166.337 76.453 166.42 75.7004C166.503 74.9478 166.765 74.226 167.184 73.5954L187.342 41.4235C187.777 40.7656 188.342 40.2033 189.001 39.7708C189.664 39.315 190.396 38.9698 191.169 38.7487C192 38.5282 192.862 38.4476 193.719 38.5103C194.596 38.5318 195.463 38.6989 196.285 39.0048L196.681 39.1007Z" fill="#ACC8E3"/>
<path d="M22.4485 12.2712C26.6709 14.3538 30.2528 17.5381 32.8165 21.4883C35.3551 25.481 36.8803 30.0339 37.2593 34.7511C37.6696 40.0999 37.0482 45.4778 35.429 50.5923C33.5407 56.621 30.6944 62.3064 26.9993 67.43C23.073 72.9631 18.3887 77.9168 13.084 82.1454C7.98447 86.2408 2.34574 89.6143 -3.67331 92.1711C-9.25453 94.5602 -15.1836 96.035 -21.233 96.539C-26.7333 97.0279 -32.2736 96.3037 -37.4632 94.4173L-37.1178 93.8527C-37.0739 93.6245 -36.8624 93.4482 -36.7461 93.2537L-36.3364 92.662L-35.9266 92.0703L-17.6786 67.0454C-15.3665 67.8165 -12.9437 68.2034 -10.5064 68.1909C-8.05033 68.1838 -5.60847 67.817 -3.25848 67.1023C-0.942732 66.4044 1.25331 65.3577 3.25406 63.9982C5.23822 62.6673 6.97419 60.9991 8.38336 59.0693C9.67707 57.2969 10.5958 55.2793 11.0835 53.1397C11.5251 51.1974 11.5254 49.1809 11.0841 47.2387C10.6429 45.2966 9.77146 43.4783 8.53409 41.9182C7.20977 40.2258 5.55579 38.82 3.67232 37.786L22.4485 12.2712Z" fill="#ACC8E3"/>
<path d="M152.986 203.645L144.272 218.376L127.836 210.672L136.642 196.077L152.986 203.645Z" fill="#ACC8E3"/>
<path d="M260.82 202.235L252.458 217.803L228.901 207.051L230.536 204.091L207.28 193.515L205.634 196.433L214.264 181.212L260.82 202.235Z" fill="#ACC8E3"/>
<path d="M230.536 204.091L228.901 207.051L216.1 230.206L192.626 219.331L205.634 196.433L207.28 193.515L230.536 204.091Z" fill="#ACC8E3"/>
<path d="M221.203 243.517L219.1 247.372L175.998 227.251L173.918 226.279L176.086 222.495L178.166 223.468L221.203 243.517Z" fill="white"/>
<path d="M233.986 126.134L233.21 127.504L178.177 223.411L176.098 222.438L173.933 226.203L176.013 227.175L158.967 256.909L157.885 256.484L156.782 256.074L155.681 255.645L154.562 255.212L182.173 207.277L184.253 208.25L186.388 204.539L184.304 203.585L229.264 125.777L230.06 124.411L233.986 126.134Z" fill="white"/>
<path d="M42.8022 208.448L50.3454 196.824L54.3378 200.967C55.6533 202.325 56.9534 203.66 58.2762 204.98L62.1758 208.888L66.0821 212.658L58.3793 224.803L50.2785 237.582L30.4049 269.099L10.1409 259.059L34.6107 221.288L42.8022 208.448Z" fill="white"/>
<path d="M-16.5871 65.6778L-17.6553 67.1289L-35.9077 92.074L-36.3174 92.6657L-36.7271 93.2574C-36.7675 93.4666 -36.9788 93.6428 -37.0988 93.8564L-37.4442 94.421C-38.4387 96.0534 -39.1383 97.8482 -39.5109 99.7231C-39.8243 101.438 -39.7603 103.2 -39.3232 104.888C-38.822 106.774 -37.9908 108.557 -36.8683 110.154C-35.4626 112.191 -33.8419 114.07 -32.0342 115.76L-30.506 117.139L-28.184 119.106L-25.167 121.659L-21.5242 124.649L-12.383 132.151C-8.97345 134.918 -5.41408 137.932 -1.63692 141.145C2.14024 144.358 6.14687 147.813 10.1849 151.412C14.2229 155.01 18.3873 158.771 22.5261 162.666C25.1439 165.143 27.6668 167.601 30.0945 170.042C32.5223 172.482 34.9114 174.816 37.2055 177.132L43.7828 183.922L50.0239 190.411L50.6933 191.132L51.3664 191.834L52.0394 192.535L52.7161 193.218L56.7086 197.36L60.6433 201.393L64.5276 205.277C65.8351 206.575 67.1455 207.754 68.4112 209.063C71.1629 211.665 73.9101 214.186 76.7211 216.582C79.532 218.978 82.3993 221.286 85.3719 223.457C88.3445 225.627 91.3925 227.713 94.5876 229.651C97.7826 231.588 101.14 233.399 104.679 235.087L105.905 235.678L107.158 236.235L108.43 236.796L109.702 237.356L122.481 242.659C126.555 244.332 130.412 245.904 134.127 247.389C137.843 248.874 141.452 250.299 144.768 251.609C148.084 252.919 151.404 254.209 154.495 255.456L155.615 255.889L156.715 256.318L157.819 256.728L158.9 257.153L166.365 259.952L173.391 262.569L180.094 265.024L186.523 267.368C192.213 269.45 197.562 271.467 203.096 273.441C208.63 275.415 213.963 277.508 219.61 279.819C225.256 282.13 231.386 284.593 237.993 287.444C244.6 290.295 251.863 293.529 259.991 297.285L260.931 297.723L261.872 298.16L262.813 298.598L263.773 299.04L261.814 302.962L261.053 302.618L260.347 302.088L259.604 301.747L258.861 301.407C250.645 297.595 243.352 294.315 236.654 291.427C229.955 288.538 223.897 286.01 218.149 283.719C212.4 281.427 206.929 279.328 201.471 277.27C196.012 275.212 190.622 273.207 184.902 271.178C180.003 269.386 174.937 267.541 169.547 265.536C164.157 263.531 158.508 261.437 152.253 259.008C145.999 256.58 139.42 253.991 131.973 250.998C124.526 248.004 116.584 244.718 107.723 240.979L106.356 240.4L105.011 239.806L103.686 239.215L102.387 238.59C98.7723 236.887 95.4756 235.068 92.2615 233.128C89.0475 231.187 85.9732 229.135 83.0005 226.964C80.0279 224.794 77.1533 222.524 74.4564 220.15C71.7595 217.776 68.9062 215.293 66.1846 212.638L62.2783 208.868L58.3786 204.96C57.0558 203.64 55.7557 202.305 54.4402 200.947L50.4478 196.805L49.5109 195.835L48.5967 194.85L47.6598 193.881L46.7266 192.892L40.5045 186.407C38.3858 184.204 36.1832 181.925 33.9272 179.617C31.6711 177.308 29.2857 174.955 26.8506 172.553C24.4155 170.15 21.881 167.65 19.3201 165.184C15.2157 161.316 11.0893 157.562 7.05131 153.964C3.0133 150.365 -0.93997 146.94 -4.78881 143.792C-8.63766 140.644 -12.1443 137.562 -15.4932 134.786L-24.5964 127.292L-28.3078 124.25L-31.3629 121.688C-32.2831 120.939 -33.0585 120.257 -33.7346 119.673C-34.4106 119.089 -34.9303 118.614 -35.4229 118.204C-37.0371 116.663 -38.5217 114.991 -39.8617 113.206C-41.2255 111.432 -42.3014 109.454 -43.0497 107.345C-43.8073 105.159 -44.0661 102.832 -43.8069 100.532C-43.4287 97.7701 -42.4743 95.1181 -41.0057 92.7485C-40.9654 92.5393 -40.773 92.3594 -40.6377 92.1685L-40.2659 91.5695L-39.8562 90.9778C-39.7208 90.7869 -39.5818 90.577 -39.4274 90.3898L-21.1444 65.49L-20.0952 64.0353L-16.5871 65.6778Z" fill="white"/>
<path d="M24.2297 187.176L26.0551 189.264L27.8616 191.348L29.6871 193.435L31.4935 195.519L34.318 198.766L37.1614 202.016L40.0085 205.247L42.8783 208.463L34.5917 221.285L30.7616 217.016L26.9769 212.716L23.2376 208.386L19.5019 204.037L17.6955 201.953L15.908 199.873L14.1016 197.789L12.2951 195.705C6.2521 188.99 -0.205491 182.66 -7.03971 176.752C-14.5691 170.094 -22.9464 163.233 -31.3488 156.604C-39.7512 149.974 -48.0865 143.713 -55.7377 138.097C-63.3889 132.48 -70.196 127.598 -75.5756 123.8L-80.4019 120.404L-84.0909 117.859L-86.4752 116.216L-87.3984 115.585L-77.6363 105.848L-76.591 106.562L-74.4662 108.017L-71.3649 110.134L-67.3784 112.874C-62.1669 116.522 -55.2231 121.41 -47.3854 127.082C-39.5478 132.755 -30.8463 139.264 -22.1011 146.058C-13.3559 152.852 -4.41785 160.077 3.57708 167.082C10.8713 173.345 17.7689 180.056 24.2297 187.176Z" fill="#AED0F0"/>
<path d="M124.92 264.274C133.315 266.543 143.201 269.769 153.93 273.533C164.658 277.297 176.273 281.784 188.055 286.322C199.837 290.861 211.85 295.839 223.277 300.585C234.704 305.332 245.693 309.994 255.301 314.153L251.278 328.684C241.69 324.529 230.73 319.813 219.151 314.939C207.571 310.064 195.418 305.099 183.555 300.367C171.692 295.635 159.937 291.16 149.127 287.302C138.318 283.444 128.474 280.206 120.2 277.921C117.671 277.236 115.209 276.506 112.74 275.714C110.27 274.923 107.964 274.103 105.668 273.227C103.373 272.351 101.138 271.467 98.9368 270.51C96.7357 269.553 94.6143 268.592 92.5266 267.559C88.3628 265.533 84.3651 263.362 80.5714 261.053C76.7777 258.744 73.1201 256.343 69.6248 253.816C66.1296 251.288 62.7544 248.547 59.5662 245.96C56.3781 243.373 53.2333 240.459 50.2178 237.59L58.3187 224.812C61.3421 227.741 64.4373 230.606 67.6494 233.375C70.8616 236.144 74.1908 238.817 77.6597 241.379C81.1287 243.941 84.7373 246.392 88.5119 248.698C92.2866 251.003 96.2463 253.166 100.395 255.169C102.193 256.068 104.173 256.943 106.123 257.772C108.073 258.601 110.064 259.419 112.089 260.164C114.114 260.909 116.219 261.65 118.334 262.334C120.45 263.018 122.699 263.728 124.92 264.274Z" fill="#AED0F0"/>
<path d="M274.25 338.792L266.358 368.593L242.061 361.682L251.231 328.931L255.32 314.157L258.888 301.372L259.63 301.713L260.373 302.053L261.131 302.416L261.893 302.76L263.851 298.838L262.891 298.396L261.951 297.959L261.01 297.521L260.069 297.083L299.171 156.27L320.249 165.461L304.82 223.633L278.169 324.083L274.25 338.792Z" fill="white"/>
<path d="M150.462 -16.6122L129.948 14.0315L125.111 21.226L104.759 12.6688L88.1304 5.65753L114.02 -31.5046L150.462 -16.6122Z" fill="#D4E5F5"/>
<path d="M146.858 21.1167L122.843 57.6539L85.1053 41.4071L104.759 12.6687L125.111 21.226L129.948 14.0315L146.858 21.1167Z" fill="#D4E5F5"/>
<path d="M312.974 13.0281L253.961 117.419L211.825 99.2398L224.791 77.3786C227.471 72.9376 229.065 67.9258 229.443 62.7519C229.746 57.8777 228.933 52.9987 227.066 48.4867C225.1 43.7781 222.18 39.5283 218.49 36.0054C214.424 32.1207 209.673 29.0248 204.478 26.875L198.587 24.3986L227.099 -21.2527L312.974 13.0281Z" fill="#D4E5F5"/>
<path d="M108.106 85.8407L101.711 95.595L86.4895 88.8549L56.716 75.6813L63.2674 66.1347L108.106 85.8407Z" fill="#D4E5F5"/>
<path d="M86.4895 88.8548L66.7623 118.486L60.0403 128.611L29.8107 114.837L36.6592 104.874L56.7159 75.6812L86.4895 88.8548Z" fill="#D4E5F5"/>
<path d="M160.846 144.546L152.212 158.76L129.943 148.69L138.688 134.615L160.846 144.546Z" fill="#D4E5F5"/>
<path d="M206.092 128.886L172.125 186.681L150.514 176.777L184.937 119.582L206.092 128.886Z" fill="#D4E5F5"/>
<path d="M112.665 195.382L103.426 210.387L86.8522 202.577L96.1876 187.689L112.665 195.382Z" fill="#D4E5F5"/>
<path d="M167.308 213.111L157.024 230.775L145.836 225.502L156.182 207.929L167.308 213.111Z" fill="#D4E5F5"/>
<path d="M169.598 112.839L158.635 130.747L137.72 121.43L148.82 103.726L169.598 112.839Z" fill="#D4E5F5"/>
<path d="M82.1566 125.457L75.4806 135.65L29.8106 114.837L36.6591 104.875L29.8106 114.837L60.0402 128.612L66.7622 118.486L82.1566 125.457Z" fill="#D4E5F5"/>
<path d="M68.8946 145.683L59.3708 160.219L45.1293 153.609L54.7298 139.186L68.8946 145.683Z" fill="#D4E5F5"/>
<path d="M283.168 160.642L265.708 193.137L227.84 176.135L245.779 144.226L283.168 160.642Z" fill="#D4E5F5"/>
<path d="M157.024 230.775L151.043 241.043L122.627 227.578L128.718 217.45L145.836 225.502L157.024 230.775Z" fill="#D4E5F5"/>
<path d="M259.795 231.802L251.528 247.388L227.6 236.308L235.994 220.883L259.795 231.802Z" fill="#D4E5F5"/>
<path d="M251.808 270.283L245.314 282.701L182.799 253.139L189.576 241.091L228.771 259.493L251.808 270.283Z" fill="#D4E5F5"/>
<path d="M85.4118 18.2307L76.1015 14.2669L22.3231 -8.56232L106.377 -122.073L350.263 -27.7363L301.904 146.383L149.885 80.4989L216.99 -25.3704L198.849 -32.6139L188.94 -17.304L113.962 -47.6703L110.432 -49.0999L107.285 -44.6372L88.3354 -17.9132L91.8954 -16.4382L110.735 -43.2031L185.935 -12.6561L130.936 72.3305L67.09 44.6616L85.4118 18.2307ZM227.091 -21.3134L198.579 24.3379L204.47 26.8143C209.665 28.964 214.416 32.0599 218.482 35.9447C222.172 39.4676 225.092 43.7174 227.058 48.426C228.925 52.938 229.738 57.817 229.435 62.6912C229.057 67.8652 227.463 72.8769 224.783 77.3179L211.831 99.103L253.967 117.282L312.966 12.9674L227.171 -21.3178L227.091 -21.3134ZM113.929 -31.5419L88.0353 5.63922L104.687 12.6351L85.0907 41.4832L122.828 57.7301L146.919 21.1087L130.005 14.0425L150.519 -16.6012L114.081 -31.5126L113.929 -31.5419ZM187.265 41.3101L167.108 73.4821C166.689 74.1127 166.427 74.8344 166.343 75.587C166.26 76.3396 166.358 77.1011 166.629 77.8081C166.913 78.5234 167.337 79.1751 167.876 79.725C168.484 80.326 169.202 80.8056 169.989 81.1382L190.903 90.1586C192.558 90.8635 194.402 90.9896 196.137 90.5164C196.961 90.3092 197.738 89.9507 198.431 89.4593C199.115 88.9887 199.695 88.382 200.134 87.6771L209.687 71.7658C211.447 68.9128 212.502 65.6812 212.765 62.339C212.994 59.1663 212.487 55.9837 211.284 53.0395C210.031 49.9771 208.145 47.2141 205.75 44.9313C203.104 42.3898 200.001 40.3729 196.604 38.9873L196.262 38.9214C195.44 38.6155 194.573 38.4484 193.696 38.4269C192.838 38.3601 191.976 38.4408 191.146 38.6654C190.37 38.8793 189.637 39.225 188.978 39.6874C188.318 40.1199 187.754 40.6823 187.319 41.3401L187.265 41.3101ZM277.275 104.673L267.375 122.489L289.217 131.807L298.946 113.957L277.447 104.804L277.275 104.673ZM160.627 -12.4835L147.594 7.37258L162.345 13.4893L175.332 -6.43476L160.715 -12.4271L160.627 -12.4835Z" fill="#EFF6FB"/>
<path d="M-37.4443 94.421C-32.2546 96.3074 -26.7143 97.0316 -21.214 96.5427C-15.1647 96.0388 -9.23558 94.5639 -3.65435 92.1748C2.36469 89.618 8.00339 86.2445 13.103 82.1491C18.4076 77.9205 23.0919 72.9669 27.0183 67.4337C30.7134 62.3101 33.5597 56.6247 35.4479 50.596C37.0671 45.4816 37.6885 40.1036 37.2783 34.7548C36.8992 30.0376 35.3741 25.4847 32.8354 21.492C30.2718 17.5418 26.6898 14.3574 22.4674 12.2748L28.5415 3.97759L70.7142 21.9667L57.6876 40.5617L52.2073 48.5394L29.0866 81.5605L38.6344 85.8265L61.5153 52.7198L125.599 80.5921L52.7681 193.051L52.0914 192.368L51.4183 191.666L50.7489 190.945L50.0758 190.244L43.8347 183.755L37.2574 176.964C34.9558 174.654 32.5855 172.29 30.1465 169.874C27.7187 167.434 25.1769 164.972 22.578 162.498C18.4392 158.604 14.2938 154.846 10.2368 151.244C6.17979 147.642 2.20752 144.213 -1.58498 140.978C-5.37749 137.742 -8.97854 134.74 -12.3311 131.983C-15.6837 129.227 -18.7461 126.704 -21.4723 124.482L-25.115 121.492L-28.1321 118.938L-30.4541 116.972L-31.9823 115.593C-33.7899 113.903 -35.4106 112.023 -36.8163 109.986C-37.9389 108.39 -38.77 106.607 -39.2713 104.72C-39.7084 103.033 -39.7724 101.27 -39.4589 99.5557C-39.084 97.742 -38.4027 96.0056 -37.4443 94.421ZM36.6629 104.856L29.8144 114.818L75.4844 135.631L82.1604 125.438L66.755 118.524L86.5195 88.8015L101.722 95.538L108.12 85.7647L63.3244 66.1457L56.773 75.6923L36.7199 104.866L36.6629 104.856ZM59.3708 160.219L68.8947 145.683L54.7335 139.167L45.1293 153.609L59.3562 160.295L59.3708 160.219Z" fill="#EFF6FB"/>
<path d="M184.286 203.68L127.462 177.522L136.119 163.293L132.112 161.475L123.383 175.572L121.186 179.094L130.617 183.456L113.004 212.548L117.069 214.475L134.731 185.432L182.166 207.315L154.555 255.25C151.433 254.057 148.205 252.804 144.828 251.404C141.45 250.003 137.884 248.665 134.187 247.183C130.49 245.702 126.614 244.126 122.54 242.454L109.762 237.151L108.49 236.59L107.218 236.029L105.965 235.472L104.738 234.881C101.123 233.178 97.8609 231.386 94.6469 229.445C91.4329 227.504 88.3812 225.437 85.4312 223.251C82.4813 221.065 79.5913 218.772 76.7804 216.377C73.9694 213.981 71.2222 211.459 68.4705 208.858L144.597 88.8095L229.264 125.777L184.286 203.68ZM184.956 119.586L150.438 176.762L172.186 186.673L206.153 128.878L184.994 119.593L184.956 119.586ZM156.106 207.915L145.76 225.488L128.776 217.56L122.684 227.688L151.119 241.057L157.043 230.778L167.342 213.039L156.258 207.944L156.106 207.915ZM148.747 103.693L137.644 121.415L158.563 130.713L169.522 112.824L148.747 103.693ZM129.932 148.747L152.197 158.836L160.854 144.607L138.681 134.653L129.932 148.747ZM112.651 195.458L96.2022 187.613L86.8895 202.486L103.459 210.314L112.68 195.306L112.651 195.458ZM136.631 196.134L127.901 210.744L144.337 218.448L153.085 203.743L136.802 196.167L136.631 196.134Z" fill="#EFF6FB"/>
<path d="M233.21 127.504L299.152 156.267L260.05 297.08C251.922 293.324 244.683 290.173 238.052 287.239C231.422 284.304 225.399 281.901 219.669 279.613C213.939 277.326 208.522 275.256 203.155 273.236L186.582 267.162L180.154 264.819L173.451 262.363L166.424 259.747L158.959 256.947L176.002 227.232L219.1 247.372L221.204 243.517L178.181 223.392L233.21 127.504ZM228.901 207.051L252.462 217.784L260.824 202.216L214.264 181.212L205.634 196.433L192.626 219.331L216.157 230.217L228.962 207.043L228.901 207.051ZM251.808 270.283L257.26 259.894L234.303 249.198L228.775 259.474L189.572 241.11L182.795 253.158L245.311 282.72L251.804 270.302L251.808 270.283ZM245.782 144.207L227.802 176.128L265.674 193.111L283.134 160.616L245.744 144.2L245.782 144.207ZM251.528 247.388L259.799 231.783L236.013 220.887L227.68 236.303L251.604 247.403L251.528 247.388Z" fill="#EFF6FB"/>
<path d="M31.4176 195.504L29.6111 193.421L27.7856 191.333L25.9792 189.249L24.1537 187.162C17.6629 180.032 10.7335 173.315 3.40608 167.049C-4.58885 160.044 -13.4582 152.871 -22.2721 146.025C-31.086 139.178 -39.7335 132.798 -47.5564 127.049C-55.3794 121.301 -62.2999 116.496 -67.5494 112.841L-48.4228 86.9403C-47.9025 87.514 -47.3785 88.0686 -46.7711 88.5999C-46.1638 89.1311 -45.6098 89.6324 -45.0902 90.1073C-44.5705 90.5822 -43.8155 91.063 -43.1481 91.4875C-42.4808 91.9119 -41.7754 92.3437 -41.0437 92.7411C-42.5123 95.1108 -43.4667 97.7628 -43.8448 100.525C-44.104 102.824 -43.8453 105.152 -43.0877 107.338C-42.3393 109.447 -41.2635 111.425 -39.8996 113.199C-38.5597 114.984 -37.0751 116.655 -35.4609 118.196C-35.0633 118.589 -34.5247 119.067 -33.7726 119.666C-33.0205 120.264 -32.3211 120.932 -31.4009 121.681L-28.3458 124.242L-24.6344 127.285L-15.5312 134.779C-12.1253 137.566 -8.58493 140.575 -4.82678 143.785C-1.06863 146.994 2.91899 150.445 7.01334 153.956C11.1077 157.467 15.1777 161.309 19.2821 165.177C21.881 167.65 24.4038 170.109 26.8126 172.545C29.2214 174.982 31.6141 177.297 33.8892 179.609C36.1642 181.922 38.3669 184.2 40.4665 186.4L46.6886 192.885L47.6218 193.873L48.5587 194.843L49.4729 195.828L50.4098 196.797L42.8667 208.421L39.9969 205.205L37.1425 202.012L34.299 198.762L31.4176 195.504Z" fill="#EFF6FB"/>
<path d="M19.4259 204.022L23.1616 208.372L26.9009 212.702L30.6856 217.001L34.5157 221.27L10.0459 259.041L-125.912 191.657L-75.648 123.766C-70.2684 127.564 -63.4079 132.476 -55.8101 138.063C-48.2122 143.649 -39.7812 150.028 -31.4212 156.57C-23.0612 163.112 -14.6414 170.06 -7.11206 176.718C-0.277845 182.626 6.17974 188.956 12.2228 195.672L14.0292 197.755L15.8357 199.839L17.6231 201.919L19.4259 204.022Z" fill="#EFF6FB"/>
<path d="M58.3794 224.803L66.0822 212.658C68.8331 215.161 71.565 217.66 74.354 220.17C77.1429 222.679 80.0205 224.832 82.8981 226.984C85.7757 229.136 88.9451 231.206 92.1591 233.147C95.3732 235.088 98.7269 236.918 102.285 238.61L103.584 239.235L104.909 239.825L106.253 240.42L107.62 240.999C116.492 244.681 124.5 248.039 131.871 251.017C139.242 253.996 145.95 256.63 152.151 259.028C158.352 261.426 164.074 263.554 169.445 265.556C174.815 267.557 179.901 269.405 184.799 271.197C190.509 273.284 195.933 275.315 201.368 277.29C206.804 279.264 212.293 281.367 218.046 283.738C223.799 286.11 229.872 288.562 236.551 291.447C243.231 294.331 250.543 297.614 258.759 301.427L255.191 314.211C245.583 310.052 234.647 305.419 223.167 300.643C211.687 295.867 199.766 291.025 187.946 286.38C176.125 281.735 164.583 277.381 153.82 273.591C143.057 269.801 133.205 266.6 124.81 264.332C122.6 263.728 120.42 263.071 118.285 262.384C116.151 261.696 114.08 260.982 112.04 260.214C110 259.446 108.024 258.651 106.074 257.822C104.124 256.992 102.22 256.132 100.346 255.219C96.1973 253.216 92.2567 251.056 88.463 248.747C84.6693 246.438 81.0797 243.991 77.6108 241.429C74.1419 238.867 70.7403 236.16 67.6005 233.425C64.4607 230.689 61.4029 227.733 58.3794 224.803Z" fill="#EFF6FB"/>
<path d="M120.2 277.921C128.474 280.206 138.367 283.394 149.127 287.302C159.888 291.21 171.68 295.593 183.555 300.367C195.43 305.14 207.621 310.113 219.151 314.939C230.681 319.764 241.69 324.529 251.278 328.684L231.038 368.552L30.3099 269.08L50.1835 237.564C53.2053 240.434 56.3214 243.224 59.5319 245.934C62.7551 248.645 66.1106 251.284 69.5906 253.789C73.0705 256.294 76.7208 258.733 80.5371 261.027C84.3534 263.321 88.3285 265.507 92.4923 267.532C94.58 268.566 96.7204 269.53 98.9025 270.483C101.085 271.437 103.335 272.344 105.634 273.201C107.933 274.058 110.293 274.907 112.705 275.688C115.118 276.468 117.671 277.236 120.2 277.921Z" fill="#EFF6FB"/>
</g>
<path d="M172 121C172 129.68 166.18 137 158.229 139.271C153.95 140 153 147.6 153 147.6C153 147.6 152.05 140.494 147.77 139.271C139.82 137 134 129.68 134 121C134 110.507 142.507 102 153 102C163.493 102 172 110.507 172 121Z" fill="#155B8A"/>
<path d="M163 130.161L143 130.175" stroke="white" stroke-linecap="round" stroke-linejoin="round"/>
<path fill-rule="evenodd" clip-rule="evenodd" d="M156 109.5H156.5V110V115.5H160H160.5V116V130.147V130.647H160H151.511V130.66H151.011H146H145.5V130.16V110V109.5H146H156ZM155.181 116.5L151.511 116.52V129.647H159.5V116.5H155.181ZM150.5 129.66H146.5V110.5H155.5V115.498L155.178 115.5H151H150.5V116V129.66Z" fill="white"/>
</g>
</svg>
