<svg width="317" height="248" viewBox="0 0 317 248" fill="none" xmlns="http://www.w3.org/2000/svg">
<g clip-path="url(#clip0_2_4005)">
<mask id="mask0_2_4005" style="mask-type:alpha" maskUnits="userSpaceOnUse" x="-13" y="0" width="330" height="250">
<rect x="-13" width="330" height="250" fill="#C4C4C4"/>
</mask>
<g mask="url(#mask0_2_4005)">
<path fill-rule="evenodd" clip-rule="evenodd" d="M96.2832 329.68C59.2442 308.213 15.3698 287.208 3.68803 244.857C-7.77156 203.311 27.2207 162.996 38.5261 120.286C49.3801 79.2825 42.8352 33.816 68.5322 -0.110287C96.8601 -37.51 138.947 -65.4113 183.882 -71.618C229.097 -77.8636 274.376 -61.2069 309.455 -33.3886C341.892 -7.66538 356.382 33.6782 368.076 74.4522C378.664 111.369 376.288 149.183 373.002 188.18C369.04 235.193 378.433 288.638 347.015 324.383C315.043 360.759 261.955 366.553 215.355 367.537C172.158 368.45 133.127 351.034 96.2832 329.68Z" fill="#EFF6FB"/>
<rect x="180.813" y="-14.4001" width="152.642" height="155.382" fill="#F8FBFF"/>
<path d="M382.768 108C370.011 103.889 364.795 79.844 350.715 72.8051C332.859 63.8609 322.548 60.4181 320.146 41.0039C319.097 32.5237 310.731 29.3189 300.019 26.6842C297.014 25.9429 293.809 25.2449 290.541 24.4879C278.834 21.7785 266.181 18.3023 257.673 9.2421C245.206 -4.05328 245.57 -20.5457 247.399 -30.5732C262.099 -29.606 276.605 -26.7531 290.549 -22.0872C327.667 -9.70017 360.666 15.6971 375.37 52.0716C382.069 68.6505 384.914 87.3981 382.768 108Z" fill="#BAD6E9"/>
<path d="M329.455 87.8812V108H189.455V44.9811H201.937V64.1316H216.171V32.9246H231.876V53.1837H235.456V28.9999H251.16V74.3443H271.021V100.787H278.441V89.0129H295.489V95.9782H305.276V64.8088H317.366V87.8812H329.455Z" fill="#E7F3FB"/>
<path d="M334.285 141.159C334.249 141.303 334.214 141.448 334.18 141.592C333.935 142.636 333.717 143.661 333.524 144.666C333.492 144.825 333.462 144.981 333.435 145.138C333.351 145.571 333.275 146.004 333.204 146.436C332.966 147.879 332.779 149.278 332.645 150.633H163.471V141.055H332.958C333.402 141.059 333.846 141.094 334.285 141.159Z" fill="#CBE1F0"/>
<path d="M181.571 -12.3039C183.472 -14.4195 185.435 -16.3736 187.455 -18.1588V141.841H181.455V-12.171L181.571 -12.3039Z" fill="#CBE1F0"/>
<path d="M278.455 -20.4157V141.841H271.455V-24.1588C273.815 -23.0152 276.149 -21.7675 278.455 -20.4157Z" fill="#CBE1F0"/>
<path d="M118.505 182.214C119.277 184.03 126.69 185.714 137.692 187.204C139.631 187.466 141.676 187.723 143.827 187.975C181.274 192.345 283.836 194.786 290.158 193.497C298.894 191.716 316.278 104.659 316.278 104.659C316.278 104.659 265.095 103.779 224.448 103.35C210.542 103.207 162.173 102.841 153.204 102.841C139.312 102.841 117.266 179.273 118.505 182.214Z" fill="#D4E5F5"/>
<path d="M132.999 171.014C132.999 171.014 148.618 111.022 149.744 105.979C150.247 103.733 151.795 102.921 153.354 102.712C150.609 102.446 148.606 102.423 148.606 102.423C143.202 102.423 138.4 106.069 136.665 111.489C132.882 123.31 125.917 145.111 118.861 167.313C119.224 167.305 132.999 171.014 132.999 171.014Z" fill="#CDE0F1"/>
<path d="M38.3312 224.13C40.8218 239.179 57.1102 248.761 73.8158 248.761H106.908L104.318 161.046C104.318 161.046 72.7454 151.492 64.8148 160.58C57.8684 168.543 39.0291 200.061 38.0377 218.72C37.9379 220.529 38.0363 222.343 38.3312 224.13Z" fill="#D4E5F5"/>
<path d="M38.3313 224.131C40.8218 239.179 57.1102 248.761 73.8159 248.761H90.0481C79.2242 241.845 69.4377 220.528 38.3313 224.131Z" fill="#ACC8E3"/>
<path d="M126.171 170.334C126.171 170.334 81.5319 148.853 73.0806 162.886C68.5916 170.336 56.2368 200.061 55.3246 218.717C54.4383 236.843 71.0936 248.761 88.228 248.761H118.658L126.171 170.334Z" fill="#BAD2E9"/>
<path d="M67.3601 234.115C67.854 234.512 68.361 234.902 68.8808 235.285C75.328 240.046 83.7377 243.842 93.3559 246.192C100.626 247.968 108.585 248.92 116.91 248.848H131.38H131.576L200.068 248.867L239.33 248.878H239.905V248.861L241.268 241.715L253.699 169.659C253.699 169.659 81.6572 165.774 67.6651 173.781C61.169 177.499 57.4843 192.899 55.4355 209.868C54.3578 218.908 58.9677 227.389 67.3601 234.115Z" fill="#CBDEF0"/>
<path d="M67.3602 234.115C67.8541 234.513 68.3611 234.903 68.8809 235.285C75.3281 240.046 83.7378 243.842 93.356 246.192C100.626 247.968 108.585 248.92 116.91 248.848H131.38H131.576L200.069 248.867L239.33 248.878L239.913 248.861L241.275 241.715C217.212 237.054 183.913 232.318 149.178 232.684C115.999 233.041 88.2224 232.994 67.3602 234.115Z" fill="#BAD2E9"/>
<path d="M222.315 71.7822C222.315 71.7822 227.619 76.2025 221.774 81.816C221.774 81.816 226.788 83.5717 228.416 82.3801C228.416 82.3801 228.075 82.986 227.777 83.2457C227.777 83.2457 232.909 83.7131 235.115 82.2214C237.32 80.7297 237.398 54.2666 222.963 56.435C222.963 56.435 210.913 54.8567 211.276 68.956C211.638 83.0553 207.069 82.8057 207.069 82.8057C207.069 82.8057 208.306 83.5025 208.919 83.5371C208.919 83.5371 209.834 83.2486 210.038 82.7552C210.038 82.7552 209.818 83.527 209.575 83.7651C209.575 83.7651 214.481 84.5037 217.045 82.7725C219.609 81.0413 222.858 74.7166 222.315 71.7822Z" fill="#233862"/>
<path d="M223.088 78.9898C223.088 78.9898 227.207 75.0542 228.914 71.2325C230.132 68.5059 236.011 57.4607 225.029 56.3224C225.029 56.3224 217.185 55.9517 213.806 57.188C211.114 58.1691 206.951 60.701 208.361 70.8675L208.548 74.2304L223.088 78.9898Z" fill="#233862"/>
<path d="M155.533 240.039C157.861 240.039 162.661 240.645 164.769 238.071C166.876 235.497 171.436 234.232 172.017 233.41C172.331 232.965 171.914 230.993 171.463 229.265C170.327 227.697 172.158 225.56 172.158 225.56L166.058 225.971C166.058 225.971 163.151 229.841 161.009 232.954C160.196 234.134 157.745 235.907 156.27 236.435C154.362 237.119 152.464 237.542 151.768 238.223C150.53 239.439 153.205 240.042 155.533 240.039Z" fill="#F5B89B"/>
<path d="M155.533 240.039C157.861 240.039 162.661 240.645 164.769 238.071C166.876 235.497 171.436 234.232 172.017 233.41C172.331 232.965 172.347 231.175 171.463 229.265C171.463 229.265 167.622 230.842 165.451 233.864C163.279 236.887 157.504 238.202 156.287 236.461C156.281 236.455 156.276 236.448 156.271 236.441C154.363 237.125 152.466 237.547 151.769 238.228C150.53 239.439 153.205 240.042 155.533 240.039Z" fill="#342928"/>
<path d="M172.017 233.41L169.676 238.417L168.12 238.588L168.351 234.128L172.017 233.41Z" fill="#932722"/>
<path d="M217.711 144.705C217.711 144.705 183.766 155.245 176.463 161.334C169.16 167.422 164.069 227.805 164.069 227.805C164.069 227.805 164.933 228.336 166.725 228.294C168.387 228.257 171.866 226.817 171.866 226.817C171.866 226.817 186.788 198.135 187.209 191.348C187.631 184.562 186.547 178.699 189.471 178.152C192.395 177.606 229.708 177.404 233.969 166.872C238.231 156.34 232.387 147.231 232.387 147.231L217.711 144.705Z" fill="#163760"/>
<path d="M163.406 240.039C165.734 240.039 170.534 240.645 172.642 238.071C174.749 235.497 179.309 234.232 179.89 233.41C180.204 232.965 179.787 230.993 179.336 229.265C178.201 227.697 180.031 225.56 180.031 225.56L173.931 225.971C173.931 225.971 171.024 229.841 168.882 232.954C168.071 234.134 165.619 235.907 164.143 236.435C162.235 237.119 160.337 237.542 159.641 238.223C158.403 239.439 161.078 240.042 163.406 240.039Z" fill="#F5B89B"/>
<path d="M163.406 240.039C165.734 240.039 170.534 240.645 172.642 238.071C174.749 235.497 179.309 234.232 179.89 233.41C180.204 232.965 180.22 231.175 179.336 229.265C179.336 229.265 175.493 230.842 173.324 233.864C171.154 236.887 165.376 238.202 164.159 236.461C164.153 236.455 164.148 236.448 164.143 236.441C162.235 237.125 160.337 237.547 159.641 238.228C158.403 239.439 161.078 240.042 163.406 240.039Z" fill="#342D2C"/>
<path d="M179.89 233.41L177.549 238.417L175.993 238.588L176.224 234.128L179.89 233.41Z" fill="#342D2C"/>
<path d="M226.599 147.892C226.599 147.892 191.636 155.25 184.339 161.334C177.041 167.417 171.945 227.805 171.945 227.805C171.945 227.805 172.808 228.336 174.601 228.294C176.263 228.257 179.742 226.817 179.742 226.817C179.742 226.817 194.661 198.135 195.088 191.348C195.515 184.562 194.426 178.699 197.35 178.152C200.273 177.606 237.581 177.404 241.848 166.872C246.116 156.34 240.257 147.231 240.257 147.231L226.599 147.892Z" fill="#1C4E8A"/>
<path d="M213.463 91.3463C213.421 91.3651 217.533 93.5104 220.626 92.6577C223.536 91.8628 225.436 88.0801 225.396 88.0715C224.164 87.8262 223.813 86.1282 223.835 78.8383L223.278 78.948L213.913 80.809C213.913 80.809 214.126 83.7636 214.132 86.548C214.139 88.8794 213.997 91.0968 213.463 91.3463Z" fill="#F5B89B"/>
<path d="M213.913 80.8033C213.913 80.8033 214.126 83.7579 214.131 86.5422C219.373 86.398 222.143 81.5996 223.278 78.9422L213.913 80.8033Z" fill="#E89B7D"/>
<path d="M212.162 83.439C212.162 83.439 224.563 83.6439 224.571 75.8996C224.58 68.1553 226.186 62.9645 218.268 62.5058C210.35 62.047 208.811 65.0016 208.181 67.5854C207.551 70.1693 208.935 83.1851 212.162 83.439Z" fill="#F5B89B"/>
<path d="M241.075 124.796C242.298 119.655 238.138 109.676 233.795 101.415C229.854 93.9273 225.764 87.8536 225.396 88.0715C215.003 94.2562 214.064 89.1145 214.064 89.1145C214.064 89.1145 204.623 90.3697 201.951 94.9834C198.642 100.708 195.045 116.704 191.494 119.733C192.041 121.409 191.806 122.303 191.228 124.379C191.102 124.825 190.966 125.245 190.815 125.65C190.279 127.112 189.608 128.298 189.029 129.328C190.838 130.43 194.331 132.525 196.904 131.019C200.827 128.71 203.887 121.708 205.61 118.917L205.63 118.886C209.371 140.138 204.283 144.978 206.86 147.218C209.582 149.584 213.47 146.092 222.023 149.815C227.634 152.255 235.42 155.784 240.661 156.398C243.411 156.721 245.461 156.241 246.128 154.378C248.069 148.967 238.742 134.599 241.075 124.796Z" fill="#73BEF0"/>
<path d="M214.918 78.7431C214.918 78.7431 214.69 79.7342 212.244 79.5755C212.244 79.5755 210.194 79.4486 210.257 78.368C210.26 78.368 212.244 77.5991 214.918 78.7431Z" fill="white"/>
<path d="M247.901 132.349C245.122 128.436 242.227 126.367 240.322 125.326C240.753 124.193 228.633 109.285 228.633 106.975C228.633 104.635 225.397 88.0757 225.397 88.0757C225.397 88.0757 235.502 88.7019 239.001 93.594C243.376 99.7081 252.465 123.257 247.901 132.349Z" fill="#73BEF0"/>
<path d="M240.322 125.323L220.128 130.607L222.023 134.018C222.023 134.018 246.599 133.846 247.901 132.346C249.203 130.845 240.322 125.323 240.322 125.323Z" fill="#F5B89B"/>
<path d="M205.61 118.919C203.883 121.709 200.827 128.717 196.904 131.02C194.331 132.526 190.838 130.431 189.029 129.329C189.605 128.299 190.279 127.113 190.815 125.652C192.253 125.982 194.02 126.406 195.157 126.748C197.367 127.419 205.61 118.919 205.61 118.919Z" fill="#163560"/>
<path d="M207.856 116.24L218.325 140.436L192.667 142.497L182.594 118.262L207.856 116.24Z" fill="#2F589B"/>
<path d="M182.773 118.193L170.817 110.589L182.773 136.804L192.855 142.609L182.773 118.193Z" fill="#2A4B7A"/>
<path d="M220.128 130.61C220.128 130.61 216.387 128.96 215.448 128.117C214.838 127.573 214.884 128.35 214.942 128.563C215.058 128.996 215.212 129.849 216.3 130.567C217.867 131.6 220.128 130.61 220.128 130.61Z" fill="#F5B89B"/>
<path d="M213.422 59.7228C213.422 59.7228 217.379 70.8473 223.062 72.6492C228.745 74.4511 230.581 72.1717 230.581 72.1717C230.581 72.1717 226.351 68.4092 225.768 62.2172C225.768 62.2115 216.515 55.0947 213.422 59.7228Z" fill="#233862"/>
<path d="M214.308 60.5899C214.308 60.5899 211.382 62.6803 210.579 64.8242C209.776 66.968 209.222 71.4432 207.927 71.2224C207.927 71.2224 205.47 64.2355 208.86 60.5466C212.455 56.6283 214.308 60.5899 214.308 60.5899Z" fill="#233862"/>
<path d="M213.769 60.9015C213.769 60.9015 215.871 71.5773 222.96 75.3427C222.96 75.3427 216.041 68.477 215.802 61.493C215.563 54.509 213.769 60.9015 213.769 60.9015Z" fill="#233862"/>
<path d="M235.12 82.2243C232.91 83.7175 227.783 83.2515 227.783 83.2515C228.082 82.986 228.42 82.3859 228.42 82.3859C225.391 83.892 219.436 80.9634 219.436 80.9634C224.706 80.9807 224.706 73.3504 223.069 72.6565C223.301 66.9536 222.855 59.6882 222.616 56.4162C222.846 56.4292 222.976 56.4465 222.976 56.4465C237.402 54.271 237.329 80.7326 235.12 82.2243Z" fill="#233862"/>
<path d="M220.128 130.61C220.128 130.61 213.572 129.355 212.123 129.673C210.674 129.99 207.44 131.385 207.198 131.692C206.956 132 208.138 132.161 208.988 131.813C210.076 131.368 211.883 131.554 211.883 131.554C211.883 131.554 208.398 132.699 207.546 133.187C207.527 133.198 207.511 133.215 207.5 133.234C207.488 133.254 207.483 133.276 207.483 133.299C207.483 133.321 207.488 133.343 207.5 133.363C207.511 133.383 207.527 133.399 207.546 133.411C207.778 133.555 208.338 133.608 209.116 133.411C210.231 133.135 212.221 132.956 212.221 132.956L208.26 134.262C208.236 134.269 208.215 134.285 208.201 134.306C208.187 134.327 208.181 134.352 208.184 134.377C208.211 134.57 208.556 134.744 209.507 134.687C210.241 134.645 212.673 134.022 212.673 134.022L210.591 135.416C210.591 135.416 211.166 135.743 212.25 135.254C212.995 134.92 215.235 134.1 215.778 134.159C216.32 134.218 219.095 134.983 220.301 134.592C221.507 134.201 222.028 134.025 222.028 134.025L220.128 130.61Z" fill="#F5B89B"/>
<path d="M130.783 127.612C130.783 127.612 139.703 131.075 142.22 130.952C144.736 130.829 154.219 130.942 155.469 131.546C155.469 131.546 156.712 133.474 155.435 134.449C154.157 135.424 144.666 137.209 141.377 136.86C138.088 136.511 125.887 133.129 123.459 131.261L130.783 127.612Z" fill="#F5B89B"/>
<path d="M161.868 134.967C161.068 135.183 160.141 135.256 159.566 135.103C158.802 134.901 157.364 134.686 156.436 134.562C155.861 134.471 155.441 134.436 155.441 134.436L155.465 131.551C155.465 131.551 159.406 129.593 160.99 130.741C161.043 130.783 161.084 130.798 161.109 130.853C161.701 131.283 162.248 131.772 162.741 132.313C163.282 132.957 163.583 133.517 163.548 133.936C163.522 134.308 162.76 134.741 161.868 134.967Z" fill="#F5B89B"/>
<path d="M125.728 152.122C125.728 152.122 131.875 158.962 141.443 164.421C143.697 165.705 146.146 168.906 148.251 172.067C150.297 175.125 152.018 178.139 152.934 179.316L149.988 183.052C149.988 183.052 146.103 180.632 142.774 177.595C141.535 176.467 140.371 175.257 139.51 174.049C138.321 172.381 120.897 173.616 118.481 166.98C117.842 165.223 125.728 152.122 125.728 152.122Z" fill="#F5B89B"/>
<path d="M135.875 167.993C135.875 167.993 131.835 169.854 131.774 172.06C131.774 172.06 132.285 172.403 133.115 172.837C135.327 173.084 137.25 173.27 138.41 173.543C138.082 172.403 137.361 170.399 135.875 167.993Z" fill="#E89B7D"/>
<path d="M155.232 178.102C155.069 178.34 154.726 178.444 154.321 178.47C153.726 178.5 153.134 178.368 152.607 178.089C152.081 177.81 151.639 177.393 151.329 176.883C150.465 175.505 149.411 173.785 148.251 172.053C147.798 173.321 147.073 174.473 146.126 175.428C145.18 176.384 144.035 177.119 142.774 177.581C144.706 179.306 146.757 180.893 148.91 182.332C149.159 182.498 149.375 182.708 149.55 182.951C150.281 183.961 152.464 186.794 153.291 186.492C153.988 186.24 157.203 181.859 159.14 179.154C160.138 177.758 158.642 175.952 157.084 176.665C156.193 177.083 155.485 177.731 155.232 178.102Z" fill="#163760"/>
<path d="M124.664 163.41C124.664 163.41 128.567 164.288 136.352 172.092C138.188 173.93 139.703 177.666 140.902 181.266C142.066 184.758 142.931 188.121 143.502 189.5L139.675 192.319C139.675 192.319 136.573 188.956 134.16 185.143C133.262 183.727 132.459 182.249 131.948 180.857C131.242 178.933 119.483 176.347 118.904 169.316C118.752 167.449 124.664 163.41 124.664 163.41Z" fill="#F5B89B"/>
<path d="M146.037 188.945C145.817 189.133 145.461 189.141 145.061 189.059C144.48 188.931 143.944 188.648 143.509 188.24C143.075 187.832 142.758 187.314 142.592 186.741C142.125 185.182 141.561 183.245 140.902 181.258C140.13 182.361 139.127 183.28 137.961 183.95C136.796 184.62 135.498 185.025 134.16 185.136C135.568 187.31 137.126 189.383 138.821 191.34C139.017 191.567 139.171 191.827 139.276 192.107C139.708 193.279 141.07 196.58 141.952 196.516C142.69 196.457 146.949 193.087 149.53 190.994C150.861 189.913 149.896 187.774 148.205 188.048C147.231 188.224 146.379 188.656 146.037 188.945Z" fill="#163760"/>
<path d="M113.51 154.084C113.51 154.084 102.918 166.758 122.074 177.295C122.074 177.295 131.19 176.668 141.572 162.485C141.572 162.485 135.483 155.517 130.574 152.998C125.665 150.479 113.51 154.084 113.51 154.084Z" fill="#2B568B"/>
<path d="M120.868 109.514C120.868 109.514 120.304 103.31 113.107 104.222C105.911 105.134 107.397 119.275 103.14 121.061C98.8822 122.847 102.492 126.379 101.069 128.261C99.6462 130.144 100.6 133.234 104.934 134.513C109.267 135.791 113.638 137.663 116.91 134.657C120.182 131.65 122.749 123.328 122.431 121.906C122.113 120.485 120.868 109.514 120.868 109.514Z" fill="#233862"/>
<path d="M130.091 127.379L129.61 134.834L119.411 127.096C119.473 127.079 119.727 126.773 120.791 124.499C121.17 123.694 121.468 122.853 121.68 121.989C121.697 121.921 121.714 121.856 121.727 121.79C121.852 121.27 121.917 120.737 121.923 120.203L123.349 120.895L124.212 121.319L128.323 120.742C128.187 121.627 128.291 123.971 128.43 125.19C128.45 125.42 128.488 125.647 128.543 125.871C128.989 127.252 130.059 127.374 130.091 127.379Z" fill="#F5B89B"/>
<path d="M136.852 132.259C136.852 132.308 136.852 132.36 136.852 132.412C136.836 133.027 136.631 134.707 135.301 135.875L134.501 136.276C134.501 136.276 133.727 148.657 134.735 155.309C134.735 155.309 126.51 160.116 115.395 159.291C114.761 159.244 114.202 158.891 113.65 158.683C113.082 158.472 112.602 158.074 112.288 157.554C111.974 157.034 111.846 156.422 111.923 155.82C112.394 152.187 113.545 144.461 115.395 139.122L115.451 138.96C117.766 132.393 119.911 126.308 119.911 126.308C119.911 126.308 124.016 129.938 126.72 129.095C129.423 128.253 129.223 126.956 129.223 126.956C129.223 126.956 131.813 126.843 132.581 127.178C133.35 127.513 136.524 128.945 136.524 128.945C136.524 128.945 136.898 129.633 136.852 132.259Z" fill="#ED9C57"/>
<path d="M120.004 148.795C120.004 148.795 122.793 148.572 123.79 149.387C124.787 150.202 124.987 151.334 124.17 151.695C121.608 152.849 119.322 151.034 119.322 151.034L120.004 148.795Z" fill="#F5B89B"/>
<path d="M115.392 159.286C114.786 159.09 114.199 158.887 113.647 158.679C113.079 158.468 112.599 158.07 112.285 157.549C111.971 157.029 111.843 156.418 111.92 155.815C112.391 152.183 113.542 144.457 115.392 139.118C115.725 138.541 115.923 138.206 115.923 138.206C115.923 138.206 118.842 152.589 115.392 159.286Z" fill="#E1833F"/>
<path d="M119.927 127.175C119.927 127.175 111.31 128.075 106.607 140.863C106.38 141.481 106.309 142.145 106.399 142.797C106.489 143.449 106.737 144.068 107.122 144.601C108.473 146.461 111.582 149.3 119.321 151.041C120.166 151.23 120.51 149.066 120.51 149.066C120.406 149.231 115.543 145.112 113.515 142.96C113.148 142.571 113.241 141.844 113.579 141.43C114.454 140.357 115.926 138.497 116.457 137.519C117.235 136.092 122.212 128.1 119.927 127.175Z" fill="#F5B89B"/>
<path d="M119.907 126.304C119.907 126.304 114.914 126.135 110.307 131.111C110.307 131.111 111.153 136.225 117.434 138.229C117.434 138.229 122.328 129.698 119.907 126.304Z" fill="#ED9C57"/>
<path d="M128.436 125.194C123.728 125.194 121.881 122.537 121.881 122.537L128.328 120.747C128.193 121.631 128.296 123.975 128.436 125.194Z" fill="#E89B7D"/>
<path d="M130.55 121.749C130.55 121.749 121.982 126.054 119.557 120.066C117.133 114.077 114.789 111.798 120.77 108.957C126.751 106.116 129.036 107.803 130.158 109.722C133.665 115.702 132.965 120.542 130.55 121.749Z" fill="#F5B89B"/>
<path d="M122.344 111.739C118.891 112.112 122.173 117.278 121.232 117.19C120.179 117.092 118.642 117.671 119.288 118.662C119.934 119.653 120.424 119.911 120.855 120.519C121.287 121.126 121.547 122.491 121.547 122.491C120.713 122.491 110.198 117.255 112.771 109.362C115.343 101.47 131.124 99.8739 128.95 107.936C128.569 109.355 124.806 111.473 122.344 111.739Z" fill="#233862"/>
<path d="M136.852 132.259C136.852 132.308 136.852 132.36 136.852 132.412C136.836 133.027 136.632 134.707 135.301 135.875L134.501 136.276C134.501 136.276 134.216 132.926 136.852 132.259Z" fill="#E1833F"/>
<path d="M203.158 224.917C205.841 239.512 220.567 248.761 235.659 248.761H266.09L263.709 161.046C263.709 161.046 234.676 151.492 227.383 160.58C220.993 168.543 203.669 200.061 202.757 218.72C202.65 220.794 202.785 222.874 203.158 224.917Z" fill="#D4E5F5"/>
<path d="M203.471 226.101C206.155 240.696 220.88 249.945 235.972 249.945H260.324C248.925 242.662 233.58 222.536 203.471 226.101Z" fill="#ACC8E3"/>
<path d="M220.572 225.527C221.782 231.298 224.874 236.193 229.107 239.991C231.683 242.282 234.599 244.158 237.749 245.553C241.728 247.327 245.986 248.392 250.33 248.698L251.012 248.738C251.192 248.747 251.374 248.754 251.554 248.76C251.856 248.773 252.159 248.781 252.461 248.784C252.62 248.784 252.781 248.784 252.944 248.784H283.374V248.77L285.132 248.792C288.263 248.828 291.537 248.861 294.572 248.887L296.076 248.898C296.26 248.898 296.444 248.898 296.623 248.898C299.622 248.917 302.276 248.926 304.166 248.914C306.685 248.911 309.2 248.728 311.692 248.367C314.734 247.913 317.525 247.17 320.079 246.105C320.536 245.913 320.984 245.713 321.424 245.505C321.864 245.297 322.305 245.072 322.746 244.829C323.898 244.204 325.001 243.495 326.047 242.706C328.746 240.674 331.083 238.101 333.067 234.935C334.531 232.565 335.753 230.055 336.716 227.44C338.01 224.016 339.045 220.131 339.852 215.754C339.874 215.643 339.895 215.532 339.915 215.42C340.28 213.406 340.596 211.29 340.864 209.072C340.986 208.059 341.099 207.025 341.2 205.969C341.563 202.235 341.803 198.217 341.92 193.914C341.931 193.538 341.94 193.16 341.948 192.781C341.948 192.696 341.948 192.612 341.948 192.529C342.023 189.107 342.027 185.5 341.961 181.708C341.933 180.046 341.89 178.349 341.833 176.616C341.809 175.827 341.781 175.031 341.75 174.228C341.594 170.194 341.371 165.968 341.079 161.55C340.949 159.563 340.805 157.537 340.648 155.472C340 146.955 339.13 137.736 338.038 127.813C336.806 116.533 335.385 108.647 333.319 106.852C330.27 104.202 323.912 103.136 319.488 102.709C317.483 102.536 315.472 102.464 313.461 102.494C313.397 102.494 311.986 102.746 311.905 102.768C311.751 102.804 309.274 103.716 308.508 104.179C305.785 105.853 303.759 108.46 302.806 111.518C299.274 122.586 292.97 142.374 286.404 163.072L286.305 163.384C285.928 164.572 285.551 165.764 285.173 166.96C285.135 167.08 285.097 167.202 285.058 167.322C285.038 167.383 285.019 167.443 284.999 167.504C284.629 167.348 284.246 167.185 283.848 167.022C283.835 167.015 283.821 167.009 283.807 167.005C282.233 166.347 280.454 165.625 278.531 164.893C277.536 164.513 276.504 164.127 275.438 163.738C272.435 162.654 269.195 161.574 265.909 160.657C264.452 160.244 262.983 159.861 261.524 159.521C259.653 159.089 257.791 158.714 255.979 158.439L255.822 158.415C255.607 158.382 255.39 158.353 255.181 158.323C253.904 158.147 252.654 158.018 251.441 157.949C245.254 157.591 240.126 158.757 237.781 162.659C236.905 164.118 235.729 166.428 234.395 169.342C231.64 175.364 228.217 183.966 225.399 192.943C222.598 201.86 220.392 211.148 220.025 218.651C219.911 220.957 220.094 223.268 220.572 225.527Z" fill="#BAD2E9"/>
<path d="M299.146 171.014C299.146 171.014 314.766 111.022 315.892 105.979C316.394 103.733 317.943 102.921 319.502 102.712C316.757 102.446 314.754 102.423 314.754 102.423C309.35 102.423 304.548 106.069 302.812 111.489C299.031 123.31 292.065 145.111 285.009 167.313C285.372 167.305 299.146 171.014 299.146 171.014Z" fill="#CDE0F1"/>
<path d="M229.77 187.442C229.994 190.653 231.768 192.321 232.915 192.595C234.132 192.886 240.417 192.879 243.129 193.433C243.936 193.601 244.423 193.814 244.363 194.105C244.304 194.396 243.855 194.753 243.172 195.087C240.995 196.147 236.344 197.104 233.441 196.244C234.062 197.639 234.794 198.982 235.628 200.26C237.388 202.953 240.079 205.962 243.178 205.679L243.46 205.651C248.766 205.065 250.475 201.901 253.837 201.653C257.259 201.399 259.759 202.288 258.047 203.163C256.336 204.038 250.545 203.452 247.784 205.702C245.023 207.952 242.784 209.332 247.911 210.339C253.038 211.346 262.254 210.72 264.097 206.943C265.043 207.469 266.463 209.99 267.449 211.918C267.589 212.247 267.811 212.703 268.142 213.315C268.275 213.594 268.381 213.823 268.456 213.981C269.591 216.701 269.636 220.661 269.513 223.23H254.885V223.981H255.736C256.048 233.885 262.548 242.307 271.667 245.831H258.517C257.69 245.826 256.893 246.141 256.294 246.711C255.74 247.234 255.41 247.953 255.376 248.714C255.376 248.755 255.376 248.795 255.376 248.841H307.044C307.044 247.179 305.636 245.834 303.902 245.834H290.743C299.86 242.311 306.361 233.892 306.674 223.985H307.266V223.237H280.107C280.725 221.942 281.476 220.671 282.356 219.734L282.81 219.292C283.258 218.898 283.573 218.599 283.782 218.378C285.147 217.124 287.035 215.524 287.945 215.369C287.912 215.226 287.899 215.079 287.906 214.932C287.918 215.072 287.931 215.217 287.945 215.369C288.257 218.867 295.354 221.921 299.719 222.549C304.085 223.178 302.736 221.462 301.231 218.918C299.727 216.374 294.966 215.236 293.881 214.064C292.796 212.892 295.04 212.888 297.669 214.039C300.299 215.189 300.66 218.249 304.881 220.181C306.388 220.871 308.167 220.461 309.83 219.648C309.849 219.55 309.868 219.452 309.886 219.353C310.207 217.581 310.487 215.719 310.725 213.767C308.826 212.659 307.359 211.299 307.457 210.701C307.535 210.227 309.138 210.534 311.018 211.036C311.338 207.75 311.552 204.214 311.66 200.427C310.897 200.935 309.96 201.569 308.969 202.192C308.508 201.619 307.756 200.984 306.877 200.276C307.651 199.619 308.346 199.055 308.785 198.709C309.725 198.953 310.684 199.118 311.651 199.204H311.693C311.759 196.192 311.763 193.018 311.705 189.682C311.679 188.219 311.642 186.725 311.593 185.2C310.725 184.769 310.17 184.328 310.09 183.939C310.016 183.582 310.573 183.304 311.518 183.099C311.38 179.549 311.183 175.829 310.925 171.941C310.811 170.192 310.683 168.409 310.543 166.592C307.642 170.629 302.046 178.061 300.027 178.302C297.252 178.633 305.749 164.869 305.749 164.869C300.373 164.372 286.675 170.672 286.675 170.672C286.675 170.672 287.542 186.924 284.767 186.593C281.993 186.261 284.767 172.164 284.767 172.164C279.565 173.659 274.707 179.462 274.707 179.462C268.638 188.915 281.645 195.88 281.645 195.88C281.645 195.88 281.82 201.519 278.178 207.986C278.178 207.986 273.6 214.635 275.066 223.235H271.037C271.81 217.045 268.578 212.351 268.578 212.351C265.813 207.445 265.946 203.167 265.946 203.167C265.946 203.167 275.814 197.882 271.208 190.713C270.583 189.991 269.915 189.309 269.207 188.67C267.77 187.358 265.712 185.79 263.577 185.177C263.577 185.177 265.682 195.87 263.577 196.123C261.471 196.375 262.129 184.044 262.129 184.044C262.129 184.044 251.735 179.263 247.656 179.643C247.656 179.643 254.103 190.084 251.997 189.831C250.027 189.597 243.556 180.317 242.741 179.136L242.655 179.009C242.655 179.009 233.236 177.342 230.687 182.158C230.519 182.477 230.385 182.813 230.287 183.161C229.817 184.815 229.685 186.236 229.77 187.442ZM291.527 205.162C292.102 205.289 292.692 205.395 293.294 205.486C292.687 206.529 292.101 207.179 291.647 206.954C291.232 206.751 291.26 206.065 291.527 205.162ZM297.601 193.892C300.634 194.114 302.649 196.138 305.866 197.641C304.615 197.536 303.235 197.514 301.924 197.527C298.195 196.543 293.695 196.728 292.053 195.876C289.799 194.721 293.091 193.56 297.601 193.891V193.892ZM284.069 200.853C283.942 200.661 283.841 200.452 283.768 200.234C283.866 200.432 283.964 200.636 284.069 200.853ZM278.707 223.236H276.984C276.77 219.935 276.687 214.064 278.326 210.145C278.423 209.934 278.565 209.637 278.74 209.265C279.176 208.451 279.468 207.852 279.654 207.419C280.952 204.872 282.823 201.553 284.07 200.856C284.405 201.513 284.873 202.093 285.444 202.561C283.072 206.783 287.634 211.871 287.634 211.871C287.634 211.871 286.439 215.292 282.763 218.406C281.085 219.712 279.702 221.358 278.707 223.236ZM264.112 206.935L264.337 206.47C264.283 206.635 264.208 206.791 264.112 206.935Z" fill="#ACCAE3"/>
<path d="M293.097 206.787C293.097 206.787 286.354 198.897 292.682 193.889C292.682 193.889 297.303 191.083 301.073 191.311C301.073 191.311 295.732 200.288 297.46 201.184C299.188 202.079 302.691 190.748 302.691 190.748C302.691 190.748 313.209 189.725 316.593 191.356C316.593 191.356 307.601 198.734 309.496 199.173C311.39 199.612 321.097 192.37 321.097 192.37C321.097 192.37 330.887 194.041 330.365 200.029C329.843 206.018 326.471 207.869 324.988 207.707C323.505 207.545 314.832 204.229 314.647 205.448C314.462 206.666 319.679 210.646 323.334 210.832C323.334 210.832 316.433 218.464 311.845 216.261C307.257 214.059 306.866 210.571 304.007 209.257C301.148 207.944 298.711 207.951 299.887 209.287C301.064 210.622 306.243 211.92 307.879 214.821C309.514 217.722 310.981 219.677 306.239 218.961C301.498 218.245 293.78 214.763 293.441 210.776L293.097 206.787Z" fill="#CDE0F1"/>
<path d="M325.559 200.189C325.559 200.189 298.97 199.16 293.097 206.787C293.097 206.787 291.799 210.686 287.8 214.237L287.177 215.939C287.177 215.939 291.785 211.068 293.434 210.774C293.436 210.771 290.857 201.327 325.559 200.189Z" fill="#C7DBED"/>
<path d="M287.803 214.237C287.803 214.237 282.095 218.469 281.699 226.032L282.735 226.124C282.735 226.124 284.558 218.306 287.852 215.25C291.146 212.194 287.803 214.237 287.803 214.237Z" fill="#C7DBED"/>
<path d="M269.519 196.862C269.519 196.862 280.247 190.838 275.24 182.663C275.24 182.663 271.235 177.643 266.945 176.352C266.945 176.352 269.232 188.543 266.945 188.83C264.657 189.117 265.376 175.064 265.376 175.064C265.376 175.064 254.076 169.614 249.642 170.044C249.642 170.044 256.651 181.95 254.362 181.662C252.073 181.375 244.206 169.327 244.206 169.327C244.206 169.327 232.621 167.178 230.761 174.06C228.901 180.943 231.906 184.387 233.622 184.817C235.339 185.247 246.352 185.104 246.067 186.538C245.782 187.972 238.343 190.267 234.194 188.976C234.194 188.976 238.771 200.307 244.779 199.733C250.787 199.159 252.646 195.434 256.364 195.143C260.083 194.852 262.796 195.861 260.942 196.865C259.088 197.869 252.789 197.194 249.785 199.755C246.782 202.315 244.35 203.892 249.928 205.04C255.506 206.188 265.519 205.47 267.521 201.167L269.519 196.862Z" fill="#CADEF1"/>
<path d="M236.049 176.213C236.049 176.213 266.086 185.964 269.519 196.865C269.519 196.865 269.376 201.741 272.38 207.335V209.485C272.38 209.485 269.227 202.17 267.516 201.166C267.52 201.167 274.239 191.701 236.049 176.213Z" fill="#C7DBED"/>
<path d="M272.38 207.335C272.38 207.335 277.012 214.389 274.371 222.975L273.18 222.653C273.18 222.653 274.336 213.196 271.912 208.441C269.488 203.685 272.38 207.335 272.38 207.335Z" fill="#C7DBED"/>
<path d="M286.586 188.558C286.586 188.558 272.444 180.617 279.043 169.843C279.043 169.843 284.324 163.226 289.979 161.524C289.979 161.524 286.963 177.595 289.979 177.973C292.996 178.351 292.054 159.824 292.054 159.824C292.054 159.824 306.948 152.639 312.793 153.206C312.793 153.206 303.555 168.897 306.571 168.519C309.588 168.141 319.959 152.261 319.959 152.261C319.959 152.261 335.23 149.424 337.682 158.5C340.133 167.575 336.169 172.112 333.911 172.68C331.654 173.247 317.13 173.059 317.507 174.948C317.884 176.837 327.689 179.863 333.157 178.161C333.157 178.161 327.123 193.097 319.205 192.341C311.286 191.585 308.834 186.67 303.932 186.292C299.03 185.914 295.447 187.236 297.899 188.56C300.35 189.884 308.646 188.994 312.606 192.369C316.565 195.744 319.77 197.824 312.416 199.336C305.063 200.849 291.861 199.904 289.225 194.231L286.586 188.558Z" fill="#D7E7F6"/>
<path d="M330.706 161.33C330.706 161.33 291.108 174.186 286.586 188.554C286.586 188.554 286.774 194.981 282.814 202.355V205.191C282.814 205.191 286.963 195.549 289.225 194.225C289.225 194.229 280.364 181.751 330.706 161.33Z" fill="#C7DBED"/>
<path d="M282.814 202.358C282.814 202.358 276.708 211.656 280.19 222.97L281.761 222.546C281.761 222.546 280.235 210.079 283.431 203.81C286.626 197.541 282.814 202.358 282.814 202.358Z" fill="#C7DBED"/>
<path d="M313.809 219.749C313.809 235.088 301.407 247.523 286.109 247.523C283.006 247.527 279.924 247.007 276.993 245.983C266.173 242.204 258.41 231.885 258.41 219.749H313.809Z" fill="#AED0F0"/>
<path d="M295.576 219.749C295.576 230.156 293.089 240.753 284.641 245.51C283.238 246.301 278.535 245.444 276.993 245.983C266.173 242.204 258.41 231.885 258.41 219.749H295.576Z" fill="#BCDAF5"/>
<path d="M286.109 247.517C284.983 247.659 290.649 247.517 289.484 247.517C274.186 247.517 261.784 235.082 261.784 219.743H268.666C268.666 233.911 272.438 245.818 286.109 247.517Z" fill="#D4E5F5"/>
<path d="M314.192 248.932H258.026C258.026 248.023 258.387 247.151 259.028 246.508C259.669 245.865 260.539 245.504 261.445 245.504H310.774C311.223 245.504 311.668 245.593 312.083 245.765C312.497 245.937 312.874 246.19 313.191 246.508C313.509 246.826 313.76 247.204 313.932 247.62C314.104 248.036 314.192 248.482 314.192 248.932Z" fill="#ACC8E3"/>
<path d="M287.876 248.932H258.026C258.026 248.482 258.115 248.036 258.287 247.62C258.459 247.204 258.71 246.826 259.028 246.508C259.345 246.19 259.722 245.937 260.137 245.765C260.552 245.593 260.996 245.504 261.445 245.504H284.458C284.907 245.504 285.352 245.593 285.767 245.765C286.181 245.937 286.558 246.19 286.875 246.508C287.193 246.826 287.444 247.204 287.616 247.62C287.788 248.036 287.876 248.482 287.876 248.932Z" fill="#BAD2E9"/>
<path d="M314.439 219.743H257.498V220.595H314.439V219.743Z" fill="#ACC8E3"/>
<line x1="69.4548" y1="248.841" x2="333.455" y2="248.841" stroke="#BAD2E9" stroke-width="2"/>
</g>
</g>
<defs>
<clipPath id="clip0_2_4005">
<rect width="317" height="248" fill="white"/>
</clipPath>
</defs>
</svg>
