<svg width="25" height="18" viewBox="0 0 25 18" fill="none" xmlns="http://www.w3.org/2000/svg">
<path d="M15.1816 14.499L1.68164 14.499" stroke="#A6ADB4" stroke-width="2" stroke-linecap="round" stroke-linejoin="round"/>
<path d="M23.6816 14.499L20.1816 14.499" stroke="#A6ADB4" stroke-width="2" stroke-linecap="round" stroke-linejoin="round"/>
<path d="M17.6816 16.999C19.0624 16.999 20.1816 15.8797 20.1816 14.499C20.1816 13.1183 19.0624 11.999 17.6816 11.999C16.3009 11.999 15.1816 13.1183 15.1816 14.499C15.1816 15.8797 16.3009 16.999 17.6816 16.999Z" stroke="#A6ADB4" stroke-width="2" stroke-linecap="round" stroke-linejoin="round"/>
<path d="M7.18164 3.49904L1.68164 3.49896" stroke="#A6ADB4" stroke-width="2" stroke-linecap="round" stroke-linejoin="round"/>
<path d="M23.6816 3.49896L12.1816 3.49904" stroke="#A6ADB4" stroke-width="2" stroke-linecap="round" stroke-linejoin="round"/>
<path d="M9.68164 5.99902C11.0624 5.99902 12.1816 4.87974 12.1816 3.49902C12.1816 2.11831 11.0624 0.999023 9.68164 0.999023C8.30093 0.999023 7.18164 2.11831 7.18164 3.49902C7.18164 4.87974 8.30093 5.99902 9.68164 5.99902Z" stroke="#A6ADB4" stroke-width="2" stroke-linecap="round" stroke-linejoin="round"/>
</svg>
