<svg width="10" height="14" viewBox="0 0 10 14" fill="none" xmlns="http://www.w3.org/2000/svg">
<path fill-rule="evenodd" clip-rule="evenodd" d="M4.40161 4.57119C4.70458 4.38941 5.09528 4.45962 5.31599 4.73551L6.98641 6.82354H8.5295C8.91935 6.82354 9.23538 7.13957 9.23538 7.52942C9.23538 7.91927 8.91935 8.2353 8.5295 8.2353H6.64714C6.43271 8.2353 6.2299 8.13783 6.09594 7.97038L5.10392 6.73036L4.60535 8.72465L6.2051 10.3244C6.27269 10.392 6.32585 10.4726 6.36136 10.5614L7.30254 12.9143C7.44732 13.2763 7.27127 13.6871 6.9093 13.8319C6.54734 13.9767 6.13653 13.8006 5.99175 13.4386L5.10438 11.2202L4.13209 10.2479L3.0815 13.3997C2.95822 13.7695 2.55847 13.9694 2.18862 13.8461C1.81878 13.7229 1.6189 13.3231 1.74218 12.9533L3.14538 8.74368L3.66666 6.65854L2.91113 7.11186L2.058 8.39156C1.84175 8.71593 1.40349 8.80358 1.07911 8.58733C0.754741 8.37109 0.667088 7.93283 0.883337 7.60845L1.82451 6.19669C1.88249 6.10973 1.95905 6.03672 2.04867 5.98295L4.40161 4.57119Z" fill="#A6ADB4"/>
<path d="M5.70589 3.76469C6.48561 3.76469 7.11766 3.13262 7.11766 2.35293C7.11766 1.57323 6.48561 0.941162 5.70589 0.941162C4.92618 0.941162 4.29413 1.57323 4.29413 2.35293C4.29413 3.13262 4.92618 3.76469 5.70589 3.76469Z" fill="#A6ADB4"/>
</svg>
